<svg width="24" height="24" viewBox="0 0 24 24" fill="none" xmlns="http://www.w3.org/2000/svg">
<g clip-path="url(#clip0)">
<path d="M11.956 23.9948C10.774 23.9948 9.592 23.9896 8.41002 23.9985C8.12236 24.0008 7.91193 23.876 7.73343 23.6032C6.04758 21.0295 4.35909 18.4584 2.66796 15.8898C1.83882 14.628 1.00917 13.3658 0.179018 12.1033C0.0603471 11.9297 -0.00330383 11.7101 -0.000392668 11.4844C0.00204002 7.75421 0.00264819 4.02432 0.00143185 0.294671C0.00143185 0.253211 0.00143185 0.211751 0.00295228 0.170292C0.00273814 0.134078 0.0123332 0.0987872 0.0302529 0.0698797C0.0481727 0.0409722 0.0734184 0.020059 0.102084 0.0103755C0.129596 -0.00266051 0.159672 -0.00543262 0.188482 0.00241232C0.217292 0.0102573 0.243531 0.0283641 0.263858 0.0544265C0.283819 0.0803006 0.302599 0.107488 0.320114 0.135865C2.6257 3.64489 4.93128 7.15391 7.23686 10.6629C9.74658 14.4817 12.2563 18.3 14.766 22.118C15.0851 22.6037 15.404 23.0893 15.7227 23.5747C15.7552 23.6187 15.7844 23.6661 15.81 23.7165C15.8234 23.7432 15.8308 23.7737 15.8317 23.805C15.8325 23.8363 15.8266 23.8673 15.8146 23.895C15.8026 23.9228 15.785 23.9462 15.7633 23.9631C15.7416 23.98 15.7168 23.9898 15.6911 23.9915C15.6475 23.996 15.6037 23.9971 15.56 23.9948H11.956Z" fill="#FF4655"/>
<path d="M23.9979 5.91122C23.9979 7.74692 23.9958 9.58263 24.0001 11.4183C24.0041 11.6857 23.9285 11.9458 23.7872 12.1505C23.0509 13.2611 22.3188 14.3753 21.5908 15.4932C21.4132 15.7664 21.2009 15.8901 20.9133 15.8893C18.5347 15.8831 16.1561 15.8819 13.7773 15.8856C13.7432 15.8856 13.7092 15.8838 13.6751 15.8856C13.641 15.8909 13.6063 15.8827 13.5763 15.8623C13.5462 15.8418 13.5223 15.8102 13.5082 15.772C13.4778 15.6939 13.4972 15.6239 13.5401 15.5584C13.6374 15.4103 13.7338 15.2622 13.8311 15.1142C17.095 10.1486 20.358 5.18321 23.6203 0.21791C23.6537 0.166825 23.6865 0.115371 23.7221 0.0665075C23.7422 0.0362463 23.7698 0.0147036 23.8008 0.00509627C23.8317 -0.00451106 23.8644 -0.00166757 23.8939 0.0132022C23.9219 0.0246154 23.9465 0.0459265 23.9645 0.0744121C23.9824 0.102898 23.993 0.137264 23.9949 0.173118C23.9981 0.22633 23.999 0.279707 23.9976 0.333034C23.998 2.19255 23.9981 4.05195 23.9979 5.91122Z" fill="#FF4756"/>
</g>
<defs>
<clipPath id="clip0">
<rect width="24" height="24" fill="white"/>
</clipPath>
</defs>
</svg>
