<svg xmlns="http://www.w3.org/2000/svg" viewBox="0 0 300 300"><defs><style>.a,.d{fill:#fff;}.b,.c,.e{fill:none;}.b{stroke:#000;}.b,.c,.d{stroke-miterlimit:10;}.c,.d{stroke:#fff;}.c{stroke-width:2px;}.d{stroke-width:5px;}</style></defs><title>epic_logo w- banner</title><polygon class="a" points="163.27 95.7 179.21 79.76 179.21 31.4 163.27 31.4 163.27 95.7"/><polyline class="a" points="125.27 213.99 126.15 216.19 134.53 216.19 134.29 215.64 134.13 215.12 132.87 212.22 131.09 208"/><path class="b" d="M149.58,295.87c-3.66,0-6-1-11-3.31L37.71,250.32c-1.72-.7-2.91-1.29-4.28-2l-1-.46c-.9-.66-3.59-2.68-3.93-3.08C25.36,241,25,237.6,24.7,234.3l-.09-.9c-.16-1.6-.24-3.34-.24-5.3V27.7c0-16.94,6.29-23.24,23.22-23.24H252.41c16.93,0,23.22,6.3,23.22,23.24V228.1c0,2-.08,3.69-.24,5.3l-.09.9c-.32,3.3-.66,6.72-3.85,10.51-.34.4-3,2.42-3.85,3l-1,.52c-1.37.68-2.56,1.26-4.29,2L161.44,292.57c-5.23,2.4-7.53,3.38-11.41,3.3h-.45Z"/><path class="c" d="M150,294.87h.05c3.59.05,5.62-.78,10.95-3.23L261.9,249.39c1.7-.68,2.87-1.26,4.23-1.93l.95-.47c1.57-1.18,3.4-2.6,3.61-2.83,3-3.55,3.29-6.66,3.61-10l.09-.9a51.1,51.1,0,0,0,.24-5.2V27.7c0-16.42-5.81-22.24-22.22-22.24H47.59c-16.41,0-22.22,5.82-22.22,22.24V228.1a51.1,51.1,0,0,0,.24,5.2l.09.9c.32,3.3.62,6.41,3.61,10,.21.23,2,1.65,3.69,2.88l.87.42c1.36.67,2.53,1.25,4.22,1.93L139,291.65c5.35,2.45,7.37,3.29,11,3.22Z"/><polygon class="d" points="148.88 272.43 148.74 272.38 93.19 255.08 206.94 255.08 148.88 272.43"/><path class="a" d="M80.79,178.79l-.46,0-1.17-.16L77,178.5l-3.5.24-.4.11-1.51.28-.36.15-1,.25-3.64,1.63-2.38,1.6-1.73,1.58-2.05,2.58L59.31,189l-.75,1.78-.11.43-.32.93-.06.42-.29,1.51,0,.44-.09.58v3.44l.57,3.22,7.25-7.38v-1.26l.17-1.23.14-.65s.22-1,.33-1.33a7.66,7.66,0,0,1,1.18-2.29,7.39,7.39,0,0,1,3.26-1.82,12.7,12.7,0,0,1,1.72,0"/><polygon class="e" points="226.94 216.74 223.03 216.56 220.22 216.04 218.37 215.52 217.9 215.31 216.58 214.86 214.45 213.81 211.41 211.75 210.34 210.81 210.89 210.07 211.26 209.7 215.03 205.13 215.4 204.75 215.93 204.03 219.01 206.16 219.37 206.31 219.8 206.58 221.81 207.42 224.41 208.08 224.87 208.12 225.38 208.22 225.74 208.21 226.29 208.26 227.72 208.21 228.95 207.94 229.25 207.83 229.77 207.47 229.97 207.23 230.22 206.62 230.26 206.21 230.22 205.73 230.09 205.39 229.93 205.17 229.31 204.67 227.35 203.88 219.78 201.84 217.87 201.08 216.16 200.13 215.02 199.29 213.76 197.94 213.26 197.19 212.84 196.44 212.39 195.21 212.18 194.26 212.04 192.76 212.03 191.66 212.18 190.26 212.37 189.37 213.18 187.2 213.66 186.33 214.59 185.13 215.66 184.07 217.15 183 218.87 182.14 222.37 181.18 224.27 180.99 226.29 180.99 227.35 181.08 227.77 181.08 228.32 181.13 231.56 181.74 233.77 182.45 236.76 183.91 239.46 185.82 234.41 193 233.63 192.43 232.89 191.99 232.53 191.72 232.17 191.56 231.74 191.29 229.43 190.25 226.75 189.6 225.46 189.47 224.5 189.47 223.29 189.73 222.72 190.03 222.4 190.32 222.15 190.69 222.05 190.95 222.01 191.34 222.05 191.85 222.38 192.49 222.59 192.68 223.34 193.13 225.5 193.87 225.85 193.94 226.32 194.09 228.73 194.68 233.37 196.08 236.04 197.47 237.58 198.67 238.57 199.81 239.34 201.07 239.54 201.46 239.84 202.36 240.13 203.76 240.23 204.78 240.23 205.94 240.09 207.46 239.76 208.86 239.61 209.36 239.04 210.62 238.04 212.16 237.1 213.18 235.98 214.1 234.78 214.88 232.97 215.69 229.8 216.5 226.94 216.74"/><polygon class="a" points="226.01 216.7 226.52 216.75 230.65 216.51 233.64 215.75 234.52 215.39 235.71 214.77 237.66 213.2 238.23 212.58 239.16 211.16 239.8 209.61 240.1 208.32 240.24 206.89 240.14 204.91 239.75 203.25 239.62 202.84 239.02 201.79 238.49 201.04 237.18 199.78 236.88 199.59 236.14 199.09 234.89 198.42 230.93 197.02 229.97 196.79 229.5 196.65 229.05 196.57 224.36 195.21 223.89 195.01 222.94 194.44 222.61 194.12 222.37 193.76 222.06 193.02 222.01 192.29 222.1 191.62 222.28 191.21 222.68 190.62 223.18 190.19 224.01 189.76 225.41 189.48 226.51 189.47 229.33 189.9 230.79 190.32 233.2 191.41 233.63 191.68 234.08 191.88 234.79 192.37 235.2 192.6 239.07 187.03 237.25 185.78 235.66 184.91 233.55 184.06 233.21 183.99 231.93 183.62 230.14 183.25 229.69 183.22 228.72 183.08 228.31 183.08 227.25 182.98 223.53 183.17 221.15 183.75 219.86 184.24 218.31 185.08 216.95 186.14 215.5 187.87 214.55 189.85 214.48 190.18 214.16 191.42 214.03 192.71 214.17 195.1 214.74 197.01 215.55 198.32 216.7 199.56 216.99 199.81 217.3 200 217.7 200.3 219.3 201.18 222.34 202.3 222.75 202.38 223.67 202.67 224.08 202.75 228.95 204.01 230.83 204.83 231.71 205.54 231.99 205.97 232.21 206.57 232.26 207.26 232.19 207.88 232.05 208.3 231.77 208.83 231.42 209.23 230.67 209.73 230.23 209.9 228.86 210.2 228.31 210.25 227.25 210.26 226.7 210.21 226.28 210.21 223.84 209.78 221.61 209.03 220.33 208.46 219.9 208.19 219.54 208.04 217.13 206.43 216.79 206.78 213.01 211.35 212.7 211.68 214.48 213.06 216.36 214.18 218.8 215.24 219.25 215.38 219.72 215.58 223.25 216.43 225.55 216.7 226.01 216.7"/><polyline class="a" points="209.14 182.98 209.14 191.25 191.33 191.25 191.33 195.57 207.35 195.57 207.35 203.39 191.33 203.39 191.33 207.92 209.37 207.92 209.37 216.19 181.54 216.19 181.54 182.98"/><polyline class="e" points="207.37 208.56 189.33 208.56 189.33 201.83 205.35 201.83 205.35 195.67 189.33 195.67 189.33 189.17 207.14 189.17 207.14 182.54 181.54 182.54 181.54 215.19"/><polygon class="e" points="174.75 216.19 164.87 216.19 164.87 197.47 164.76 197.62 164.56 197.98 164.04 198.74 163.82 199.14 163 200.3 162.81 200.66 162.29 201.43 162.08 201.82 160.75 203.78 160.31 204.53 160.01 204.93 159.82 205.29 159 206.46 158.57 207.21 158.26 207.62 158.07 207.98 156.9 209.76 156.17 209.76 148.29 197.56 148.29 216.19 138.54 216.19 138.54 181.54 148.76 181.54 156.62 194.3 156.65 194.26 156.96 193.83 157.61 192.69 157.92 192.26 162.68 184.52 162.99 184.1 163.64 182.95 163.96 182.53 164.54 181.54 174.75 181.54 174.75 216.19"/><polyline class="a" points="140.54 199.46 140.54 216.19 148.29 216.19 148.29 195.37 149.46 196.96 149.73 197.43 149.97 197.75 150.24 198.22 150.48 198.53 150.74 199 150.98 199.32 151.25 199.79 151.49 200.1 151.76 200.58 152 200.89 152.26 201.37 152.5 201.68 152.77 202.15 153.01 202.47 153.27 202.94 157.53 209.49 166.87 195.05 166.87 216.19 174.75 216.19 174.75 183.54 166.09 183.54 157.62 197.23 151.9 187.93"/><path class="a" d="M206.1,52.38c0-4.17,1.85-6,6-6l1.35.13,14.37-14.38a36.86,36.86,0,0,0-10.33-1.71h-8.24c-14,0-21.08,7.13-21.08,21.18V71.76L206.1,53.82Z"/><path class="a" d="M216.86,123.77c3.6.18,5.87-2.15,5.43-6.24l16.42-16.2V118c0,14-7.09,21.18-21.08,21.18h-8.39a29,29,0,0,1-7-.84"/><rect class="e" x="162.27" y="43.06" width="17.94" height="112.35"/><path class="e" d="M125.4,155.4H107.46V43.06h27.09c14,0,21.08,7.12,21.08,21.18V93.82c0,14.05-7.09,21.18-21.08,21.18H125.4Z"/><polygon class="a" points="100.28 143.75 61.29 143.75 61.29 31.4 99.97 31.4 99.97 47.83 79.23 47.83 79.23 78.33 99.17 78.33 99.17 94.76 79.23 94.76 79.23 127.32 100.28 127.32 100.28 143.75"/><polygon points="174.31 155.4 179.21 150.5 179.21 155.4 174.31 155.4"/><path class="a" d="M124.4,134.57V101.35h10.15c13.51,0,20.08-6.6,20.08-20.18V51.58c0-13.58-6.57-20.18-20.08-20.18H108.46V141.75h8.76m21-61.38c0,4.46-2.05,6.53-6.33,6.53h-7v-41h7c4.28,0,6.33,2.06,6.33,6.52Z"/><path class="a" d="M195.15,93.23a5.36,5.36,0,0,0-1.61,4.66,9.32,9.32,0,0,0,7.57,7.57,5.36,5.36,0,0,0,4.66-1.61,5.43,5.43,0,0,0,1.62-4.67,9.29,9.29,0,0,0-7.57-7.58A5.42,5.42,0,0,0,195.15,93.23Z"/><path class="a" d="M216,72.43a5.36,5.36,0,0,0-1.61,4.66,9.29,9.29,0,0,0,7.57,7.57,5.36,5.36,0,0,0,4.66-1.61,5.42,5.42,0,0,0,1.62-4.67,9.29,9.29,0,0,0-7.57-7.58A5.42,5.42,0,0,0,216,72.43Z"/><path class="a" d="M77.84,210.54a5.38,5.38,0,0,0-1.62,4.66,9.31,9.31,0,0,0,7.58,7.58,5.66,5.66,0,0,0,6.28-6.28,9.25,9.25,0,0,0-7.58-7.58A5.4,5.4,0,0,0,77.84,210.54Z"/><path class="a" d="M262.24.17,23.74,238.54,0,262.39l37.74,37.78,38-38.15L300,37.92M64.88,241.68a5.46,5.46,0,0,0,4.7-1.64A4.46,4.46,0,0,0,70.85,237a6.37,6.37,0,0,0-.85-3.54l7.27-2.17a17.77,17.77,0,0,1,.93,2.55,14.72,14.72,0,0,1,.48,2.85,12.69,12.69,0,0,1-.15,3,11,11,0,0,1-1.09,3.06,12,12,0,0,1-2.19,3,13.4,13.4,0,0,1-13.93,3.4,18.76,18.76,0,0,1-11.44-11.45,13.56,13.56,0,0,1-.31-7.45,13.74,13.74,0,0,1,3.72-6.46,12.56,12.56,0,0,1,2.93-2.2,10.53,10.53,0,0,1,3-1.11,12.08,12.08,0,0,1,3-.16,14.37,14.37,0,0,1,2.85.47,17,17,0,0,1,2.58.94L65.56,229a6.39,6.39,0,0,0-3.53-.84A4.46,4.46,0,0,0,59,229.42a5.46,5.46,0,0,0-1.64,4.7,9.14,9.14,0,0,0,7.56,7.56Zm31.88-30.52a14.74,14.74,0,0,1,1.39,5.57,13.36,13.36,0,0,1-.92,5.38A13.7,13.7,0,0,1,84,230.85a14.33,14.33,0,0,1-5.57-1.39,19,19,0,0,1-8.92-8.92A14.33,14.33,0,0,1,68.15,215a13.54,13.54,0,0,1,4-10.09,13.52,13.52,0,0,1,4.72-3.11,13.36,13.36,0,0,1,5.38-.92,14.69,14.69,0,0,1,5.56,1.39,18.77,18.77,0,0,1,8.93,8.92Zm30.35-18.09-5.48,5.48L108.88,185.8l8.71,16.79-2.46,2.46-16.79-8.71,12.75,12.75-5.48,5.48L84.4,193.36,92,185.79l13.36,7-7-13.34,7.57-7.57Zm8.42-8.43-5.48,5.48-21.2-21.21,5.47-5.48Zm20.36-20.36-5.26,5.27-17.43-4.06,10.74,10.74-5.48,5.48-21.2-21.21,5.65-5.65,16.34,3.75-10-10,5.48-5.48Zm15.64-21.63a12.92,12.92,0,0,1-8.19,13.41,13.53,13.53,0,0,1-5.18.85,14.38,14.38,0,0,1-5.56-1.4,19.48,19.48,0,0,1-9.12-9.13,13.94,13.94,0,0,1-1.34-5.62,13.47,13.47,0,0,1,1-5.33,14,14,0,0,1,3.1-4.64,12.1,12.1,0,0,1,2.7-2.06,10.94,10.94,0,0,1,2.82-1.13,12.06,12.06,0,0,1,2.82-.3,12.87,12.87,0,0,1,2.71.29,14.69,14.69,0,0,1,2.47.77l-1.87,7.39a6.9,6.9,0,0,0-3.18-.54,4.2,4.2,0,0,0-2.8,1.25,5.45,5.45,0,0,0-1.64,4.7,9.14,9.14,0,0,0,7.56,7.56,5.69,5.69,0,0,0,6.12-4,5.91,5.91,0,0,0,.14-2.67l-3.84,3.84-5.59-5.59,9.88-9.88Q170.79,136.62,171.53,142.65Zm25.18-22.3c-.09,2.69-1.37,5.26-3.82,7.71a15.65,15.65,0,0,1-11.8,5l-1.91-7.62a12,12,0,0,0,4.57-.62,10.13,10.13,0,0,0,4-2.5,4.44,4.44,0,0,0,1.16-1.71,1.28,1.28,0,0,0-.28-1.42.9.9,0,0,0-.89-.2,5.15,5.15,0,0,0-1.3.55l-1.69,1-2,1.16-2.15,1.23a7.29,7.29,0,0,1-2.37.85,9.67,9.67,0,0,1-2.57.13,7.33,7.33,0,0,1-2.7-.85,10.9,10.9,0,0,1-2.76-2.06,10.14,10.14,0,0,1-2.13-3.11,9.69,9.69,0,0,1-.85-3.64,9.31,9.31,0,0,1,.8-4,12.17,12.17,0,0,1,2.67-3.85,15.18,15.18,0,0,1,10.68-4.76l1.61,7.5a11.61,11.61,0,0,0-4.13,1,11.17,11.17,0,0,0-3.31,2.22q-1.38,1.38-.45,2.31a.91.91,0,0,0,.88.19,5,5,0,0,0,1.33-.54l1.7-1,2-1.13,2.15-1.21a7.71,7.71,0,0,1,2.37-.85,9.47,9.47,0,0,1,2.54-.16,7,7,0,0,1,2.65.78,9.78,9.78,0,0,1,2.64,1.95A10,10,0,0,1,196.71,120.35Zm17.37-26.5a14.69,14.69,0,0,1,1.39,5.56,13.73,13.73,0,0,1-14.12,14.13,14.69,14.69,0,0,1-5.57-1.39,19,19,0,0,1-8.93-8.93,14.69,14.69,0,0,1-1.39-5.57,13.55,13.55,0,0,1,.93-5.38,13.41,13.41,0,0,1,3.1-4.71,13.57,13.57,0,0,1,4.72-3.11,13.31,13.31,0,0,1,5.37-.92,14.69,14.69,0,0,1,5.57,1.39,18.85,18.85,0,0,1,8.93,8.93Zm20.8-20.8a14.69,14.69,0,0,1,1.39,5.57,13.73,13.73,0,0,1-14.12,14.12,14.64,14.64,0,0,1-5.57-1.39,19,19,0,0,1-8.93-8.93,14.69,14.69,0,0,1-1.39-5.57,13.55,13.55,0,0,1,.93-5.38,13.41,13.41,0,0,1,3.1-4.71A13.57,13.57,0,0,1,215,63.65a13.31,13.31,0,0,1,5.37-.92A14.69,14.69,0,0,1,226,64.12a18.85,18.85,0,0,1,8.93,8.93Zm26.27-14-5.26,5.27-17.43-4.06L249.2,71l-5.48,5.48-21.2-21.21,5.65-5.65,16.34,3.75-10-10.05L240,37.81Z"/></svg>