<svg xmlns="http://www.w3.org/2000/svg" viewBox="0 0 300 300"><defs><style>.a{fill:#fff;fill-rule:evenodd;}</style></defs><title>epic_logo</title><path class="a" d="M137.8,91V62.05c0-4.6-2.12-6.74-6.54-6.74h-7.19v42.4h7.19C135.68,97.71,137.8,95.57,137.8,91Z"/><polygon class="a" points="111.49 203.79 111.96 203.79 112.44 203.79 112.91 203.79 113.39 203.79 113.86 203.79 114.34 203.79 114.77 203.79 115.24 203.79 115.72 203.79 116.2 203.79 116.67 203.79 117.14 203.79 117.62 203.79 118.1 203.79 118.57 203.79 118.38 203.36 118.24 202.93 118.05 202.45 117.86 202.02 117.72 201.59 117.53 201.16 117.34 200.68 117.19 200.25 117 199.82 116.81 199.39 116.67 198.96 116.48 198.48 116.34 198.05 116.15 197.62 115.96 197.19 115.81 196.76 115.63 196.28 115.43 195.85 115.29 195.42 115.1 194.98 114.91 194.51 114.77 194.07 114.58 193.64 114.39 194.07 114.25 194.51 114.06 194.98 113.86 195.42 113.72 195.85 113.53 196.28 113.34 196.76 113.15 197.19 113.01 197.62 112.82 198.05 112.63 198.48 112.49 198.96 112.3 199.39 112.11 199.82 111.96 200.25 111.77 200.68 111.58 201.16 111.39 201.59 111.25 202.02 111.06 202.45 110.87 202.93 110.73 203.36 110.54 203.79 111.01 203.79 111.49 203.79"/><path class="a" d="M255.79,0H44.21C27.06,0,20.74,6.33,20.74,23.49v207a54.07,54.07,0,0,0,.24,5.42c.4,3.74.47,7.37,3.95,11.5.34.41,3.9,3,3.9,3,1.91.94,3.22,1.63,5.37,2.5l104.19,43.65c5.4,2.48,7.67,3.44,11.59,3.37h0c3.92.07,6.18-.89,11.59-3.37L265.8,253c2.15-.87,3.46-1.56,5.37-2.5,0,0,3.56-2.64,3.9-3,3.48-4.13,3.55-7.76,3.94-11.5a51.14,51.14,0,0,0,.25-5.42v-207C279.26,6.33,272.94,0,255.79,0Zm-92.6,39.87h17.5v115h-17.5Zm-7.62,156.35.24.38.24-.38.24-.42.28-.39.24-.43.23-.38.24-.42.29-.39.23-.43L158,193l.24-.38.29-.43.23-.38.24-.43.24-.38.28-.43.24-.38.24-.43.24-.38.24-.38.28-.43.24-.38.24-.43.23-.38.29-.43.24-.38.23-.38.24-.43.29-.38.24-.43.23-.38.24-.43.29-.38.23-.43.24-.39H174v34.76h-9.18V197.13l-.24.38-.28.43-.24.39-.28.38-.24.43-.29.38-.23.38-.24.44-.29.38-.24.38-.28.38-.24.43-.28.39-.24.38-.24.43-.29.38-.23.38-.29.43-.23.39-.29.38-.24.43-.24.38-.28.38-.24.43-.28.39-.24.38-.29.38-.24.43-.23.39-.29.38-.23.43-.29.38-.24.38-.28.44-.24.38h-.19l-.29-.43-.24-.39-.28-.43-.24-.38-.28-.43-.24-.38-.28-.43-.24-.38-.29-.43L153,207l-.28-.43-.24-.38-.28-.43-.24-.38-.29-.44-.24-.38-.28-.43-.29-.38-.23-.43-.29-.38-.24-.43-.28-.39-.24-.43-.28-.38-.24-.43-.29-.38-.23-.43-.29-.39-.24-.43-.28-.38-.24-.43-.29-.38-.24-.43-.28-.38v20.45h-9V182.92h9.74l.24.39.24.43.28.38.24.43.24.38.24.43.24.38.28.43.24.38.24.38.23.43.24.38.29.43.23.38.24.43.24.38.29.38.23.43.24.38.24.43.23.38.29.43.24.38.24.43.23.38.24.38.29.43.24.39.23.42.24.38.24.43.28.39Zm-49-156.35H134c14.23,0,21.26,7.06,21.26,21.36V91.79c0,14.3-7,21.36-21.26,21.36h-10v41.74h-17.5Zm-8.11,170.8.19-.43.19-.43.19-.43.19-.43.15-.43.18-.48.2-.43.19-.43.19-.43.19-.43.19-.43.19-.48.14-.43.19-.43.19-.43.19-.43.19-.43.19-.47.19-.43.19-.43.14-.43.19-.43.19-.43.19-.48.2-.43.18-.43.19-.43.2-.43.14-.43.19-.43.19-.47.19-.43.19-.43.19-.43.19-.43.19-.43.14-.48.19-.43.19-.43.19-.43.19-.43.19-.43.19-.48.19-.42.14-.43.2-.43.18-.43.19-.43.2-.48.18-.43.2-.43.19-.43.14-.43.19-.43.19-.48.19-.43.19-.43.19-.43.19-.43.19-.43.14-.47.19-.43.19-.43.19-.43h8.8l.19.43.19.43.19.43.19.47.14.43.19.43.19.43.19.43.19.43.19.48.19.43.19.43.14.43.19.43.2.43.19.48.18.43.2.43.19.43.18.43.15.42.19.48.19.43.19.43.19.43.19.43.19.43.19.48.14.43.19.43.19.43.19.43.19.43.19.47.19.43.19.43.14.43.2.43.19.43.18.43.2.48.19.43.19.43.19.43.14.43.19.43.19.47.19.43.19.43.19.43.19.43.19.43.14.48.19.43.19.43.19.43.19.43.19.43.19.48.2.43.14.43.19.43.19.43.19.43.19.47.19.43.19.43.19.43.14.43.19.43.19.48.19.43.19.43.19.43.19.43.19.43.15.47.18.43.19.43.19.43H124l-.19-.43-.14-.43-.19-.43-.19-.47-.14-.43-.19-.43-.2-.43-.14-.43-.19-.43-.19-.43-.14-.43-.19-.48-.19-.43-.14-.43-.2-.43H107.73l-.19.43-.14.43-.19.43-.19.48-.14.43-.19.43-.19.43-.15.43-.19.43-.19.43-.14.43-.19.47-.19.43-.14.43-.19.43h-9.6l.18-.43.2-.43.19-.43.18-.47.15-.43.19-.43.19-.43.19-.43.19-.43.19-.48.19-.43.19-.43.14-.43.19-.43.19-.43ZM58.88,39.87H97.8V55.8H76.37V88.34H97v15.94H76.37V139H98.12v15.94H58.88ZM92,197.92v15l-.33.28-.38.29-.33.24-.38.29-.38.24-.38.28-.38.24-.38.24-.43.24-.43.24-.43.24-.43.18-.42.24-.48.19-.43.19-.47.2-.43.19-.43.14-.43.14-.42.15-.48.14-.42.14-.48.1-.43.09-.47.1-.48.09-.48.05-.52,0-.47.05-.53,0-.47,0-.53,0H76l-.48,0-.52,0-.47,0-.48-.05-.48,0-.47-.09-.48-.1-.42-.09-.48-.1-.43-.14-.47-.1-.43-.14-.43-.19-.43-.15-.47-.19-.43-.19-.43-.19-.42-.19-.43-.24-.38-.23-.43-.24-.38-.24-.38-.24-.38-.29-.38-.28-.38-.29-.34-.29-.33-.28-.33-.34-.33-.28-.34-.34-.33-.33-.28-.34-.29-.38-.28-.33-.24-.38-.29-.39-.24-.38-.23-.38-.24-.43-.24-.38-.19-.43-.19-.43-.19-.43-.19-.43-.14-.38-.19-.43-.1-.43-.14-.43-.09-.48-.15-.43-.09-.48-.05-.43-.1-.48,0-.42,0-.48,0-.48,0-.48v-1.57l0-.53v-.48l0-.47,0-.53.09-.47,0-.48.1-.43.14-.48.09-.48.14-.43.15-.47.14-.43.19-.48.19-.43.19-.43.19-.43.19-.43.24-.43.24-.38.23-.38.24-.39.24-.38.29-.38.28-.38.29-.38.28-.34.33-.33.29-.34.33-.33.34-.34.33-.28.38-.34.33-.28.38-.29.38-.24.38-.28.38-.24.38-.24.43-.24.43-.24.43-.24.42-.19.43-.19.48-.24.38-.14.47-.15.43-.19.43-.09.43-.15.47-.09.43-.14.47-.1.48-.05.48-.09.47,0,.48-.05.47,0,.48,0h2l.53,0,.52,0h.47l.48.05.52.1.43,0,.47.1.48.09.43.1.43.09.42.1.43.14.43.1.38.14.43.15.43.19.42.19.43.19.43.24.43.19.38.24.43.24.37.23.43.24.38.29.38.24.38.29.38.28.39.34.38.28-.29.38-.33.34-.29.38-.33.38-.29.39-.28.33-.34.38-.28.38-.29.34-.33.38-.28.38-.34.38-.28.34-.29.38-.33.38-.28.38-.34.34-.28.38-.38-.29-.38-.33L84.2,193l-.38-.29-.38-.23-.38-.24-.38-.24-.43-.24-.38-.19-.38-.19-.38-.15-.43-.14-.43-.14-.43-.1-.47-.09-.48-.1-.47,0-.52,0-.53,0h-1l-.47,0-.43,0-.48.1-.42.09-.43.15-.43.14-.43.19-.42.19-.39.24-.37.24-.39.24-.33.29-.33.28-.33.29-.29.33-.33.34-.29.38-.24.33-.23.39-.24.43-.24.38-.19.43-.14.43-.19.43-.14.47-.1.48-.09.43-.1.52,0,.48,0,.48v1.1l0,.47,0,.43,0,.48.09.43.1.43.09.43.15.43.14.38.19.48.19.43.24.43.23.38.24.38.29.39.28.33.33.34.29.33.33.29.38.28.38.29.38.24.38.24.43.19.43.19.43.19.47.14.48.15.48.09.47.1.48,0,.52.05h1.09l.53-.05.52,0,.47-.05.48-.1.48-.09.47-.15.43-.09.42-.19.39-.19.42-.19.34-.19.38-.24v-4.35H76.31v-7H92Zm56.86,77.84L94.71,258.9H205.29Zm59.9-65.48v7.4H181V182.92h27.47v7.88h-18.4v5.69h16.55v7.4H190.11v5.92h18.64Zm-18.81-75.76V60.24c0-14.29,7-21.36,21.26-21.36h8.5c14.23,0,21.1,6.9,21.1,21.2v23.5H223.63V61.06c0-4.6-2.13-6.73-6.54-6.73h-3c-4.58,0-6.7,2.13-6.7,6.73v72.63c0,4.61,2.12,6.74,6.7,6.74h3.27c4.42,0,6.54-2.13,6.54-6.74v-26h17.17v26.79c0,14.29-7,21.36-21.25,21.36H211.2C197,155.88,189.94,148.81,189.94,134.52ZM241.66,207v.62l0,.53-.05.47,0,.53-.1.48-.14.47-.09.43-.14.48-.2.43-.19.38-.18.43-.24.38L240,213l-.29.38-.23.38-.29.33-.33.34-.29.29-.38.33-.33.29-.38.28-.38.24-.38.28-.43.24-.43.19-.42.24L235,217l-.48.2-.47.14-.48.14-.42.15-.48.09-.43.1-.42.09-.48.1-.48,0-.42.05-.48,0-.52.05-.48,0h-2l-.48,0h-.52l-.48-.05-.47,0-.53-.05L224,218l-.48-.05-.47-.09-.48-.1-.47-.09-.48-.1-.48-.14-.42-.1-.48-.14-.47-.15-.43-.19-.48-.14-.42-.14-.48-.19-.43-.2-.42-.19-.43-.23-.43-.19-.43-.24-.38-.24-.43-.24-.38-.24-.38-.24-.38-.28-.38-.29-.38-.29-.38-.28-.33-.29-.38-.33.28-.39.34-.33.28-.38.33-.38.29-.34.28-.38.34-.38.28-.34.34-.38L215,209l.33-.38.29-.39.28-.33.34-.38.28-.39.33-.33.29-.38.38.29.43.28.38.29.43.29.38.23.43.29.37.24.43.19.38.24.43.19.43.19.43.19.42.15.43.19.48.14.47.14.43.15.48.09.47.1.48.09.52,0,.48.1h.47l.52,0h1.05l.52,0,.48-.1.43-.1.42-.09.38-.14.34-.2.38-.28.28-.34.19-.38.15-.43,0-.48v-.09l0-.57-.19-.48-.24-.34-.33-.28-.39-.29-.38-.19-.42-.19-.48-.19-.57-.24L229,205l-.38-.09-.43-.15-.43-.09-.47-.14-.48-.1-.52-.14-.48-.1-.52-.14-.47-.1-.48-.14-.48-.1-.47-.14-.43-.14-.48-.1-.42-.14-.43-.14-.43-.15-.52-.19-.48-.19-.47-.19-.48-.19-.43-.24-.47-.24-.38-.24-.43-.24-.38-.28-.38-.24-.33-.29-.34-.33-.33-.34-.28-.33-.29-.34-.24-.33-.23-.38-.24-.43-.19-.33-.15-.38-.14-.43-.14-.39-.1-.47-.09-.43-.05-.48,0-.48,0-.52v-1.1l0-.48,0-.43.05-.48.09-.43.1-.43.14-.43.1-.43.19-.43.19-.43.19-.43L215,188l.23-.43.29-.38.28-.38.34-.38.33-.34.33-.38.38-.33.33-.24.39-.29.38-.28.37-.24.43-.24.43-.19.43-.24.43-.19.47-.15.48-.19.43-.14.38-.1.42-.09.43-.1.48-.09.43-.1.47,0,.48-.05.47,0,.48-.05h2l.52.05.53,0h.47l.53.05.47.09.52,0,.48.09.43.1.47.09.48.1.43.1.47.14.43.14.43.1.47.19.43.14.43.19.42.19.48.2.43.23.38.2.43.23.43.24.37.24.43.29.38.24.39.28.38.29.37.29-.28.38-.24.38-.28.38-.29.38-.28.43-.24.39-.29.38-.28.38-.24.38-.28.38-.29.39-.24.38-.28.43-.29.38-.28.38-.24.38-.29.39-.38-.29-.42-.24-.38-.24-.39-.28-.42-.2-.39-.23-.42-.2-.38-.19-.43-.19-.38-.19-.43-.14-.38-.19-.52-.15-.48-.14-.47-.14-.48-.1-.47-.09-.48-.1-.47,0-.48,0-.43,0h-1l-.52.09-.48.1-.43.09-.38.2-.33.19-.43.38-.29.43-.18.43,0,.48v.09l0,.62.23.53.19.28.33.34.43.24.38.24.48.19.52.19.57.19.38.09.38.15.43.09.43.15.47.09.53.14.52.15.52.14.53.1.47.14.52.14.48.1.48.14.47.15.43.14.47.14.43.14.43.15.52.19.48.24.47.19.48.23.43.24.43.24.37.24.39.29.38.24.37.33.39.33.33.39.33.33.29.38.28.43.24.38.24.44.19.38.14.43.14.43.1.43.09.47.1.48.05.48,0,.52Z"/></svg>