<?xml version="1.0" encoding="UTF-8"?>
<svg width="12px" height="12px" viewBox="0 0 12 12" version="1.1" xmlns="http://www.w3.org/2000/svg" xmlns:xlink="http://www.w3.org/1999/xlink">
    <!-- Generator: Sketch 55 (78076) - https://sketchapp.com -->
    <title>thumb-up</title>
    <desc>Created with Sketch.</desc>
    <g id="Gamer-Details/LoL/Desktop" stroke="none" stroke-width="1" fill="none" fill-rule="evenodd">
        <g id="Gamer-Details---Reviews-Empty" transform="translate(-592.000000, -524.000000)" fill="#FFFFFF" fill-rule="nonzero">
            <g id="Review-Gamer" transform="translate(545.000000, 365.000000)">
                <g id="Textarea-with-Description" transform="translate(15.000000, 50.000000)">
                    <g id="Selections" transform="translate(15.000000, 100.000000)">
                        <g id="Button-Select">
                            <g id="thumb-up" transform="translate(17.000000, 9.000000)">
                                <path d="M11.4582857,6.18 C11.5294286,6.3424 11.5714286,6.5528 11.5714286,6.8256 C11.5714286,7.2464 11.3657143,7.6024 11.0391429,7.812 C11.1574286,7.9992 11.214,8.2128 11.214,8.4264 C11.214,8.876 10.9457143,9.2592 10.5411429,9.4568 C10.6097143,9.6072 10.65,9.7928 10.6517143,10.0208 C10.6534286,10.38 10.5411429,10.6688 10.3165714,10.8792 C10.08,11.1008 9.74485714,11.2136 9.32142857,11.2136 L4.5,11.2136 C3.85371429,11.2136 3.40885714,10.8904 3.08314286,10.6536 C2.89542857,10.5176 2.718,10.388 2.59457143,10.388 L0.792857143,10.388 C0.556285714,10.388 0.364285714,10.2088 0.364285714,9.988 C0.364285714,9.7672 0.556285714,9.588 0.792857143,9.588 L2.59457143,9.588 C3.012,9.588 3.32914286,9.8184 3.60942857,10.0216 C3.88628571,10.2224 4.14771429,10.4128 4.5,10.4128 L9.32142857,10.4128 C9.50314286,10.4128 9.64114286,10.3784 9.70885714,10.3144 C9.76714286,10.26 9.79628571,10.1624 9.79542857,10.0248 C9.79285714,9.6752 9.71657143,9.6 8.91514286,9.6 L8.82428571,9.6 C8.58771429,9.6 8.39571429,9.4208 8.39571429,9.2 C8.39571429,8.9792 8.58771429,8.8 8.82428571,8.8 L9.90257143,8.8 C10.1657143,8.8 10.3568571,8.6424 10.3568571,8.4256 C10.3568571,8.0656 9.972,8.012 9.74228571,8.012 L9.09942857,8.012 C8.86285714,8.012 8.67085714,7.8328 8.67085714,7.612 C8.67085714,7.3912 8.86285714,7.212 9.09942857,7.212 L10.3311429,7.212 C10.6148571,7.212 10.7151429,7.012 10.7151429,6.8248 C10.7151429,6.4312 10.7151429,6.4312 10.3388571,6.4208 C10.2951429,6.42 10.2497143,6.4168 10.2051429,6.4152 L9.28285714,6.4152 C9.04628571,6.4152 8.85428571,6.236 8.85428571,6.0152 C8.85428571,5.7944 9.04628571,5.6152 9.28285714,5.6152 L10.1245714,5.6152 C10.1305714,5.6152 10.1357143,5.612 10.1417143,5.612 L10.6825714,5.612 C10.9354286,5.612 11.142,5.4304 11.142,5.208 C11.142,4.9856 10.9362857,4.804 10.6825714,4.804 L6.86571429,4.804 C6.738,4.804 6.61714286,4.7512 6.53571429,4.6592 C6.45428571,4.5672 6.42085714,4.4464 6.44485714,4.3296 L6.89057143,2.1424 C6.94371429,1.924 7.09457143,1.3048 6.91885714,1.0304 C6.87342857,0.9592 6.76285714,0.8832 6.62742857,0.8832 C6.62742857,0.8832 6.62742857,0.8832 6.62742857,0.8832 C6.45942857,0.8832 6.28714286,1.0088 6.14228571,1.2352 L3.36428571,5.4224 C3.28628571,5.54 3.14828571,5.612 3,5.612 L0.798,5.612 C0.561428571,5.612 0.369428571,5.4328 0.369428571,5.212 C0.369428571,4.9912 0.561428571,4.812 0.798,4.812 L2.76171429,4.812 L5.40857143,0.82 C5.81657143,0.18 6.34714286,0.0832 6.62571429,0.0832 C6.62571429,0.0832 6.62571429,0.0832 6.62657143,0.0832 C7.04228571,0.0832 7.44514286,0.2944 7.65342857,0.62 C7.96542857,1.1072 7.85742857,1.776 7.728,2.3048 L7.38257143,4.004 L10.6817143,4.004 C11.4077143,4.004 11.9982857,4.544 11.9982857,5.208 C11.9991429,5.6064 11.7857143,5.9608 11.4582857,6.18 L11.4582857,6.18 Z" id="Shape"></path>
                            </g>
                        </g>
                    </g>
                </g>
            </g>
        </g>
    </g>
</svg>