<?xml version="1.0" encoding="UTF-8"?>
<svg width="15px" height="20px" viewBox="0 0 15 20" version="1.1" xmlns="http://www.w3.org/2000/svg" xmlns:xlink="http://www.w3.org/1999/xlink">
    <!-- Generator: Sketch 55.2 (78181) - https://sketchapp.com -->
    <title>lock</title>
    <desc>Created with Sketch.</desc>
    <g id="Sign-In/Sign-Up" stroke="none" stroke-width="1" fill="none" fill-rule="evenodd">
        <g id="Sign-In" transform="translate(-591.000000, -430.000000)" fill="#CED0DA" fill-rule="nonzero">
            <g transform="translate(550.000000, 285.000000)" id="Password-Form">
                <g transform="translate(30.000000, 137.000000)">
                    <g id="lock" transform="translate(10.000000, 7.000000)">
                        <path d="M9.71428571,13.6822857 C9.71428571,14.1005714 9.47771429,14.4502857 9.14285714,14.6491429 L9.14285714,17.1108571 L8,17.1108571 L8,14.6502857 C7.664,14.4514286 7.42857143,14.1017143 7.42857143,13.6822857 C7.42857143,13.0514286 7.93942857,12.5394286 8.57142857,12.5394286 C9.20114286,12.5394286 9.71428571,13.0502857 9.71428571,13.6822857 Z M15.96,10.8114286 L15.96,18.9028571 C15.96,19.848 15.1908571,20.6171429 14.2457143,20.6171429 L2.82971429,20.6171429 C1.88457143,20.6171429 1.11542857,19.848 1.11542857,18.9028571 L1.11542857,10.8114286 C1.11542857,9.86628571 1.88457143,9.09714286 2.82971429,9.09714286 L2.85714286,9.09714286 L2.85714286,6.82514286 C2.85714286,3.67428571 5.42057143,1.11085714 8.57142857,1.11085714 C11.7222857,1.11085714 14.2857143,3.67428571 14.2857143,6.82514286 L14.2857143,9.10171429 C15.2125714,9.12228571 15.96,9.88 15.96,10.8114286 Z M4,9.09714286 L13.1428571,9.09714286 L13.1428571,6.82514286 C13.1428571,4.304 11.0925714,2.25371429 8.57142857,2.25371429 C6.05028571,2.25371429 4,4.304 4,6.82514286 L4,9.09714286 Z M14.8171429,10.8114286 C14.8171429,10.5097143 14.5805714,10.2697143 14.2857143,10.248 L14.2857143,10.2525714 L2.85714286,10.2525714 L2.85714286,10.24 L2.82971429,10.24 C2.51542857,10.24 2.25828571,10.496 2.25828571,10.8114286 L2.25828571,18.9028571 C2.25828571,19.2182857 2.51542857,19.4742857 2.82971429,19.4742857 L14.2457143,19.4742857 C14.56,19.4742857 14.8171429,19.2182857 14.8171429,18.9028571 L14.8171429,10.8114286 L14.8171429,10.8114286 Z" id="Shape"></path>
                    </g>
                </g>
            </g>
        </g>
    </g>
</svg>