<svg xmlns="http://www.w3.org/2000/svg" viewBox="0 0 300 300"><defs><style>.a{fill:#fff;}</style></defs><title>battlenet_logo</title><path class="a" d="M195.15,93.06a5.36,5.36,0,0,0-1.61,4.66,9.29,9.29,0,0,0,7.57,7.57,5.36,5.36,0,0,0,4.66-1.61A5.42,5.42,0,0,0,207.39,99a9.26,9.26,0,0,0-7.57-7.57A5.42,5.42,0,0,0,195.15,93.06Z"/><path class="a" d="M216,72.26a5.36,5.36,0,0,0-1.61,4.66,9.26,9.26,0,0,0,7.57,7.57,5.36,5.36,0,0,0,4.66-1.61,5.42,5.42,0,0,0,1.62-4.67,9.26,9.26,0,0,0-7.57-7.57A5.42,5.42,0,0,0,216,72.26Z"/><path class="a" d="M77.84,210.38A5.36,5.36,0,0,0,76.22,215a9.31,9.31,0,0,0,7.58,7.58,5.65,5.65,0,0,0,6.28-6.28,9.25,9.25,0,0,0-7.58-7.58A5.38,5.38,0,0,0,77.84,210.38Z"/><path class="a" d="M262.24,0,23.74,238.37,0,262.23,37.74,300l38-38.15L300,37.75M64.88,241.51a5.46,5.46,0,0,0,4.7-1.64,4.46,4.46,0,0,0,1.27-3.07,6.32,6.32,0,0,0-.85-3.53l7.27-2.18a17.77,17.77,0,0,1,.93,2.55,14.85,14.85,0,0,1,.48,2.85,12.69,12.69,0,0,1-.15,3,10.75,10.75,0,0,1-1.09,3.06,12,12,0,0,1-2.19,3,13.4,13.4,0,0,1-13.93,3.4,18.76,18.76,0,0,1-11.44-11.45,13.56,13.56,0,0,1-.31-7.45,13.74,13.74,0,0,1,3.72-6.46,12.56,12.56,0,0,1,2.93-2.2,10.79,10.79,0,0,1,3-1.1,12.07,12.07,0,0,1,3-.17,14.37,14.37,0,0,1,2.85.47,17.09,17.09,0,0,1,2.58.95l-2.15,7.3A6.4,6.4,0,0,0,62,228,4.46,4.46,0,0,0,59,229.25a5.46,5.46,0,0,0-1.64,4.7,9.14,9.14,0,0,0,7.56,7.56ZM96.76,211a14.69,14.69,0,0,1,1.39,5.56,13.36,13.36,0,0,1-.92,5.38,14,14,0,0,1-7.82,7.82,13.36,13.36,0,0,1-5.38.92,14.49,14.49,0,0,1-5.57-1.38,18,18,0,0,1-5.22-3.71,17.77,17.77,0,0,1-3.7-5.22,14.33,14.33,0,0,1-1.39-5.57,13.36,13.36,0,0,1,.92-5.38,14,14,0,0,1,7.82-7.82,13.36,13.36,0,0,1,5.38-.92,14.69,14.69,0,0,1,5.56,1.39A18.74,18.74,0,0,1,96.76,211Zm30.35-18.1-5.48,5.48-12.75-12.75,8.71,16.79-2.46,2.46-16.79-8.7,12.75,12.74-5.48,5.48L84.4,193.19,92,185.62l13.36,7-7-13.34,7.57-7.57Zm8.42-8.42L130.05,190l-21.2-21.21,5.47-5.47Zm20.36-20.37-5.26,5.27-17.43-4.06,10.74,10.75-5.48,5.47-21.2-21.21,5.65-5.65,16.34,3.75-10-10.05,5.48-5.48Zm15.64-21.62a12.92,12.92,0,0,1-8.19,13.4,13.53,13.53,0,0,1-5.18.85,14.38,14.38,0,0,1-5.56-1.4,19.48,19.48,0,0,1-9.12-9.13,13.94,13.94,0,0,1-1.34-5.62,13.47,13.47,0,0,1,1-5.33,14,14,0,0,1,3.1-4.64,12.1,12.1,0,0,1,2.7-2.06,10.55,10.55,0,0,1,2.82-1.12,11.56,11.56,0,0,1,2.82-.31,12.87,12.87,0,0,1,2.71.29,14.69,14.69,0,0,1,2.47.77l-1.87,7.4a6.78,6.78,0,0,0-3.18-.55,4.2,4.2,0,0,0-2.8,1.25,5.46,5.46,0,0,0-1.64,4.7,9.14,9.14,0,0,0,7.56,7.56,5.69,5.69,0,0,0,6.12-4,6,6,0,0,0,.14-2.68l-3.84,3.85-5.59-5.59,9.88-9.89Q170.79,136.45,171.53,142.49Zm25.18-22.31c-.09,2.69-1.37,5.26-3.82,7.71a15.65,15.65,0,0,1-11.8,5l-1.91-7.62a12,12,0,0,0,4.57-.62,10.13,10.13,0,0,0,4-2.5,4.44,4.44,0,0,0,1.16-1.71,1.29,1.29,0,0,0-.28-1.42.9.9,0,0,0-.89-.2,4.88,4.88,0,0,0-1.3.56l-1.69,1-2,1.15-2.15,1.23a7.54,7.54,0,0,1-2.37.86,10.1,10.1,0,0,1-2.57.12,7.33,7.33,0,0,1-2.7-.85,10.9,10.9,0,0,1-2.76-2.06,10.14,10.14,0,0,1-2.13-3.11,9.69,9.69,0,0,1-.85-3.64,9.34,9.34,0,0,1,.8-4,12.17,12.17,0,0,1,2.67-3.85,15.18,15.18,0,0,1,10.68-4.76L183,109a11.83,11.83,0,0,0-4.13,1,11,11,0,0,0-3.31,2.23c-.92.92-1.07,1.69-.45,2.3a.89.89,0,0,0,.88.19,5,5,0,0,0,1.33-.54l1.7-1,2-1.13,2.15-1.21a8,8,0,0,1,2.37-.85,9.47,9.47,0,0,1,2.54-.16,7.23,7.23,0,0,1,2.65.78,10.22,10.22,0,0,1,2.64,2A10,10,0,0,1,196.71,120.18Zm17.37-26.5a14.69,14.69,0,0,1,1.39,5.57,13.73,13.73,0,0,1-14.12,14.12,14.69,14.69,0,0,1-5.57-1.39,18.13,18.13,0,0,1-5.23-3.7,18.33,18.33,0,0,1-3.7-5.23,14.64,14.64,0,0,1-1.39-5.57,13.55,13.55,0,0,1,.93-5.38,13.75,13.75,0,0,1,13.19-8.74,14.69,14.69,0,0,1,5.57,1.39,19,19,0,0,1,8.93,8.93Zm20.8-20.8a14.69,14.69,0,0,1,1.39,5.57,13.49,13.49,0,0,1-.92,5.37,13.7,13.7,0,0,1-3.11,4.73,13.64,13.64,0,0,1-10.09,4,14.64,14.64,0,0,1-5.57-1.39,18.13,18.13,0,0,1-5.23-3.7,18.33,18.33,0,0,1-3.7-5.23,14.64,14.64,0,0,1-1.39-5.57A13.82,13.82,0,0,1,215,63.49a13.32,13.32,0,0,1,5.37-.93A14.69,14.69,0,0,1,226,64a19,19,0,0,1,8.93,8.93Zm26.27-14-5.26,5.27-17.43-4.06L249.2,70.81l-5.48,5.47-21.2-21.2,5.65-5.66,16.34,3.75-10-10.05L240,37.65Z"/><path class="a" d="M129.68,104.12c6.17,1.49,12.36,2.92,18.53,4.38l11.84-11.83q-15-3-30.37-4.87Z"/><path class="a" d="M299.39,173a44,44,0,0,0-7.26-14.35c-7.21-9.71-16.85-16.87-26.89-23.46-.66-.44-1.26-1-2-1.53,4.75-1,9.29-1.53,13.58-2.86,7.94-2.46,10.62-6.93,9.22-15.07a19.93,19.93,0,0,0-2.74-6.54c-4.75-8-11.46-14.17-19.09-19.35-2.16-1.47-4.37-2.86-6.6-4.26L213,130.18c3.15,1.53,6.28,3.09,9.37,4.75,2.54,1.37,3.42,3,3.63,5.82.76,10.38-2.28,19.79-7,28.76-13,24.93-31.12,45.44-53.8,62-.7.51-1.45.94-2.71,1.76l-9.24-20.57c12.8,0,24.2-2.93,34.3-10.84-5.68,1.65-11,3.58-16.42,4.64a86.32,86.32,0,0,1-16.47,1.16A492.19,492.19,0,0,0,218.38,140l-9-6.27L102.64,240.46c3.09-1.35,6.14-2.83,9.17-4.36,1-.48,1.91-.92,2.69-1.3-1.56,4.07-3.5,7.79-4.39,11.74-2.13,9.49,3,16.26,12.57,17.38a40.94,40.94,0,0,0,21-3.41c6.56-2.78,12.93-6,19.6-9.2.47.71,1.14,1.68,1.79,2.66,4.3,6.54,8.45,13.18,12.93,19.58,5.74,8.21,11.72,16.26,19.78,22.41a56.11,56.11,0,0,0,6.82,3.87l.63-.87a292.59,292.59,0,0,1-35.78-52.4c1-.78,1.68-1.41,2.44-2a174.19,174.19,0,0,0,33.94-34.13c2.23-3,4.46-3.93,8.09-3.74,17.31.92,34.58.37,51.61-3.22,9.51-2,18.78-4.73,26.41-11.21C297.92,187.2,301.49,180.78,299.39,173ZM131,243.58c-3.43-.42-6.69-1.37-7.72-5.36-.85-3.28,1.16-9.28,3.88-11.15,5.07-3.52,10.21-6.95,15.62-10.62l12.26,21.21C147.37,241.62,139.71,244.66,131,243.58ZM252.8,187.4c-8.34,4.06-17.3,5.53-26.43,6.24-2.88.22-5.78.39-9.22.62,9.44-16.17,16.34-32.74,17.18-51.93,10.1,7.43,19.82,14.39,25.41,25.39C264,176.05,261.23,183.3,252.8,187.4Zm3.38-60.75a13.21,13.21,0,0,1-8.74-1.39c-4.37-2.36-9-4.28-13.8-6.54L246.36,98c6.75,4,12.56,8.57,16.29,15.38C266.79,120.92,264.61,125.36,256.18,126.65Z"/><path class="a" d="M63.53,96.48a6,6,0,0,1,.4,1,168.21,168.21,0,0,0,14.45,51.2,4.34,4.34,0,0,1-.43,4.75A217.11,217.11,0,0,0,56.64,194c-1.18,3-2.27,6.1-3.21,9.19l26.42-26.39c1.73-4.37,3.73-8.66,5.72-13.26,1,1.54,2,3.07,2.93,4.6l7.52-7.5A177.89,177.89,0,0,1,80.5,102.73c-.1-1.08-.11-2.17-.16-3.25,0-.43,0-.86,0-1.94l21.09,2.2c-6.79,11.48-10.68,23.25-7.06,36.44a80.9,80.9,0,0,1,11.42-32.68,377.5,377.5,0,0,0,8.64,38.75L128,128.65c-1.49-7.74-2.71-15.54-3.6-23.41-.59-5.28-.65-10.63-1.17-15.93-.22-2.22.69-3.29,2.47-4.35,12-7.18,25.2-9.7,39.05-9.64a142,142,0,0,1,15.64,1L191.71,65a5.42,5.42,0,0,1-.74-1C182,48,172.14,32.48,159.89,18.66,154,12,147.55,5.74,139.17,2.09c-5.82-2.53-11.82-2.94-17,1.09a44.47,44.47,0,0,0-9.69,9.92c-6.55,9.7-8.65,21-9.85,32.39-.36,3.35-.57,6.71-.87,10.31-2.51-3.18-4.62-6.08-7-8.78a15,15,0,0,0-10.42-5.44c-6.26-.46-10,3.26-13.16,8-7.2,11-8.6,23.24-8.13,36,0,1.13,0,2.27,0,3.4-6.39.33-12.36.54-18.31,1-11.93.88-23.86,1.89-35.25,5.9A98.5,98.5,0,0,0,0,100.3l.35,1C21.27,96.88,42.41,95.86,63.53,96.48Zm71.55-56.16c4.92-6.07,10.82-7.46,17.15-2.86a105.09,105.09,0,0,1,15,13.91c3.85,4.16,7,9,10.93,14.26-19.51-.19-37.79,1.19-54.75,11.79C124,63.56,126.45,51,135.08,40.32ZM86.46,63.51c3.26-4.17,6.92-4.26,10.84-.7a14.72,14.72,0,0,1,5.22,10.11c.4,5.47,1,10.92,1.56,16.21H80C80.37,79.79,80.65,70.93,86.46,63.51Z"/></svg>