<svg xmlns="http://www.w3.org/2000/svg" viewBox="0 0 300 300"><defs><style>.a{fill:#fff;}</style></defs><title>xbl_logo</title><path class="a" d="M261.66,249.47c.54-6.66,1.38-13.31,1.54-20,.39-16.19-3.71-31.44-10.43-46.07-13.35-29-31.34-55-52.48-78.88-7.11-8-14.58-15.75-21.89-23.61-.38-.41-.74-.85-1.37-1.59,5.3-4.49,10.42-9.06,15.77-13.33C206,55.49,220,46.37,235.84,40.25c7.95-3.08,14.95-1.1,20.79,4.46a135.41,135.41,0,0,1,24,31.6,145.13,145.13,0,0,1,18.62,59.31c3.34,37.73-5.85,72.22-28.3,102.81s-52.57,50.49-89.89,58.13c-45.71,9.37-87.44-.41-124.2-29.25C28.42,245,10.16,215.75,3.27,180.26c-9.78-50.3,3-94.78,37.42-132.81,6.64-7.33,15.05-9.58,24.83-6.8,14.67,4.16,27.1,12.23,38.66,21.77,6.25,5.15,12.08,10.79,18.28,16.37-.84.95-1.34,1.55-1.89,2.12a446.55,446.55,0,0,0-55.1,70.29,181.28,181.28,0,0,0-25.91,65.34c-2,10.84-2.92,21.78-.28,32.69.06.24.17.45.43,1.16.59-2.51,1-4.62,1.58-6.66,3.82-13.06,10.8-24.51,18.26-35.72,17.65-26.54,39-49.91,61.46-72.39q13.45-13.5,26.79-27.1a20.34,20.34,0,0,0,1.73-2.4c5.08,5,9.72,9.48,14.29,14A915.16,915.16,0,0,1,231.63,195c12.36,15.37,22.35,32.1,28.16,51.1.34,1.09.62,2.19.93,3.29Z"/><path class="a" d="M230.26,23.84c-11.28-4.48-21.94-1.2-32.37,2.88-16.69,6.53-31.48,16.39-45.7,27.11-1.75,1.33-2.81,1.41-4.57.06-13.1-10-26.75-19.19-41.81-26.06-7.7-3.52-15.58-6.69-24.22-6.52-4,.09-8,1.12-11.09,1.59C116-8.07,184.58-7.5,230.26,23.84Z"/></svg>