<?xml version="1.0" encoding="UTF-8"?>
<svg width="18px" height="14px" viewBox="0 0 18 14" version="1.1" xmlns="http://www.w3.org/2000/svg" xmlns:xlink="http://www.w3.org/1999/xlink">
    <!-- Generator: Sketch 61.2 (89653) - https://sketch.com -->
    <title>Shape</title>
    <desc>Created with Sketch.</desc>
    <g id="Home---Desktop" stroke="none" stroke-width="1" fill="none" fill-rule="evenodd">
        <g transform="translate(-742.000000, -2063.000000)" fill="#FFFFFF" fill-rule="nonzero" id="Footer-Social-Links-Copy">
            <g transform="translate(681.000000, 2063.000000)">
                <path d="M76.4662128,3.48909973 C76.4773666,3.64221047 76.4773666,3.79532121 76.4773666,3.94944593 C76.4773666,8.61881654 72.9223582,14 66.4257985,14 C64.4242051,14 62.5645687,13.4200043 61,12.4141378 C61.2849279,12.4465851 61.5587021,12.4567248 61.8537698,12.4567248 C63.5055407,12.4567248 65.0244803,11.8990367 66.2392265,10.947925 C64.6858115,10.9154777 63.3848772,9.89744333 62.9366988,8.49713913 C63.1547041,8.52958644 63.3737235,8.55189397 63.6018686,8.55189397 C63.9202578,8.55189397 64.2376331,8.50829289 64.5327008,8.43224451 C62.9143913,8.10371551 61.6996451,6.68211777 61.6996451,4.96545231 C61.6996451,4.95429854 61.6996451,4.93199102 61.6996451,4.92185123 C62.1701311,5.18345767 62.7166655,5.34772217 63.2966611,5.3700297 C62.3455494,4.73527921 61.7219526,3.65235026 61.7219526,2.42847831 C61.7219526,1.77243427 61.8973709,1.17013109 62.2035924,0.644890273 C63.9425654,2.78945462 66.5566017,4.18975882 69.4880133,4.34185558 C69.4322445,4.07923517 69.3997972,3.805461 69.3997972,3.53168683 C69.3997972,1.58586224 70.9755197,0 72.932498,0 C73.9495184,0 74.8681828,0.425870935 75.5140871,1.11537626 C76.3120881,0.962265517 77.0766278,0.667197798 77.7559933,0.26262041 C77.4933729,1.08292895 76.9356848,1.77243427 76.2025784,2.20844499 C76.9143913,2.13239661 77.6028826,1.9356848 78.2376331,1.66191063 C77.7559933,2.36155573 77.1547041,2.98616644 76.4662128,3.48909973 Z" id="Shape"></path>
            </g>
        </g>
    </g>
</svg>