<svg xmlns="http://www.w3.org/2000/svg" viewBox="0 0 300 300"><defs><style>.a{fill:#fff;}</style></defs><title>steam_logo</title><path class="a" d="M195.15,93.06a5.36,5.36,0,0,0-1.61,4.66,9.29,9.29,0,0,0,7.57,7.57,5.36,5.36,0,0,0,4.66-1.61A5.42,5.42,0,0,0,207.39,99a9.26,9.26,0,0,0-7.57-7.57A5.42,5.42,0,0,0,195.15,93.06Z"/><path class="a" d="M216,72.26a5.36,5.36,0,0,0-1.61,4.66,9.26,9.26,0,0,0,7.57,7.57,5.36,5.36,0,0,0,4.66-1.61,5.42,5.42,0,0,0,1.62-4.67,9.26,9.26,0,0,0-7.57-7.57A5.42,5.42,0,0,0,216,72.26Z"/><path class="a" d="M77.84,210.38A5.36,5.36,0,0,0,76.22,215a9.31,9.31,0,0,0,7.58,7.58,5.65,5.65,0,0,0,6.28-6.28,9.25,9.25,0,0,0-7.58-7.58A5.38,5.38,0,0,0,77.84,210.38Z"/><path class="a" d="M262.24,0,23.74,238.37,0,262.23,37.74,300l38-38.15L300,37.75M64.88,241.51a5.46,5.46,0,0,0,4.7-1.64,4.46,4.46,0,0,0,1.27-3.07,6.32,6.32,0,0,0-.85-3.53l7.27-2.18a17.77,17.77,0,0,1,.93,2.55,14.85,14.85,0,0,1,.48,2.85,12.69,12.69,0,0,1-.15,3,10.75,10.75,0,0,1-1.09,3.06,12,12,0,0,1-2.19,3,13.4,13.4,0,0,1-13.93,3.4,18.76,18.76,0,0,1-11.44-11.45,13.56,13.56,0,0,1-.31-7.45,13.74,13.74,0,0,1,3.72-6.46,12.56,12.56,0,0,1,2.93-2.2,10.79,10.79,0,0,1,3-1.1,12.07,12.07,0,0,1,3-.17,14.37,14.37,0,0,1,2.85.47,17.09,17.09,0,0,1,2.58.95l-2.15,7.3A6.4,6.4,0,0,0,62,228,4.46,4.46,0,0,0,59,229.25a5.46,5.46,0,0,0-1.64,4.7,9.14,9.14,0,0,0,7.56,7.56ZM96.76,211a14.69,14.69,0,0,1,1.39,5.56,13.36,13.36,0,0,1-.92,5.38,14,14,0,0,1-7.82,7.82,13.36,13.36,0,0,1-5.38.92,14.49,14.49,0,0,1-5.57-1.38,18,18,0,0,1-5.22-3.71,17.77,17.77,0,0,1-3.7-5.22,14.33,14.33,0,0,1-1.39-5.57,13.36,13.36,0,0,1,.92-5.38,14,14,0,0,1,7.82-7.82,13.36,13.36,0,0,1,5.38-.92,14.69,14.69,0,0,1,5.56,1.39A18.74,18.74,0,0,1,96.76,211Zm30.35-18.1-5.48,5.48-12.75-12.75,8.71,16.79-2.46,2.46-16.79-8.7,12.75,12.74-5.48,5.48L84.4,193.19,92,185.62l13.36,7-7-13.34,7.57-7.57Zm8.42-8.42L130.05,190l-21.2-21.21,5.47-5.47Zm20.36-20.37-5.26,5.27-17.43-4.06,10.74,10.75-5.48,5.47-21.2-21.21,5.65-5.65,16.34,3.75-10-10.05,5.48-5.48Zm15.64-21.62a12.92,12.92,0,0,1-8.19,13.4,13.53,13.53,0,0,1-5.18.85,14.38,14.38,0,0,1-5.56-1.4,19.48,19.48,0,0,1-9.12-9.13,13.94,13.94,0,0,1-1.34-5.62,13.47,13.47,0,0,1,1-5.33,14,14,0,0,1,3.1-4.64,12.1,12.1,0,0,1,2.7-2.06,10.55,10.55,0,0,1,2.82-1.12,11.56,11.56,0,0,1,2.82-.31,12.87,12.87,0,0,1,2.71.29,14.69,14.69,0,0,1,2.47.77l-1.87,7.4a6.78,6.78,0,0,0-3.18-.55,4.2,4.2,0,0,0-2.8,1.25,5.46,5.46,0,0,0-1.64,4.7,9.14,9.14,0,0,0,7.56,7.56,5.69,5.69,0,0,0,6.12-4,6,6,0,0,0,.14-2.68l-3.84,3.85-5.59-5.59,9.88-9.89Q170.79,136.45,171.53,142.49Zm25.18-22.31c-.09,2.69-1.37,5.26-3.82,7.71a15.65,15.65,0,0,1-11.8,5l-1.91-7.62a12,12,0,0,0,4.57-.62,10.13,10.13,0,0,0,4-2.5,4.44,4.44,0,0,0,1.16-1.71,1.29,1.29,0,0,0-.28-1.42.9.9,0,0,0-.89-.2,4.88,4.88,0,0,0-1.3.56l-1.69,1-2,1.15-2.15,1.23a7.54,7.54,0,0,1-2.37.86,10.1,10.1,0,0,1-2.57.12,7.33,7.33,0,0,1-2.7-.85,10.9,10.9,0,0,1-2.76-2.06,10.14,10.14,0,0,1-2.13-3.11,9.69,9.69,0,0,1-.85-3.64,9.34,9.34,0,0,1,.8-4,12.17,12.17,0,0,1,2.67-3.85,15.18,15.18,0,0,1,10.68-4.76L183,109a11.83,11.83,0,0,0-4.13,1,11,11,0,0,0-3.31,2.23c-.92.92-1.07,1.69-.45,2.3a.89.89,0,0,0,.88.19,5,5,0,0,0,1.33-.54l1.7-1,2-1.13,2.15-1.21a8,8,0,0,1,2.37-.85,9.47,9.47,0,0,1,2.54-.16,7.23,7.23,0,0,1,2.65.78,10.22,10.22,0,0,1,2.64,2A10,10,0,0,1,196.71,120.18Zm17.37-26.5a14.69,14.69,0,0,1,1.39,5.57,13.73,13.73,0,0,1-14.12,14.12,14.69,14.69,0,0,1-5.57-1.39,18.13,18.13,0,0,1-5.23-3.7,18.33,18.33,0,0,1-3.7-5.23,14.64,14.64,0,0,1-1.39-5.57,13.55,13.55,0,0,1,.93-5.38,13.75,13.75,0,0,1,13.19-8.74,14.69,14.69,0,0,1,5.57,1.39,19,19,0,0,1,8.93,8.93Zm20.8-20.8a14.69,14.69,0,0,1,1.39,5.57,13.49,13.49,0,0,1-.92,5.37,13.7,13.7,0,0,1-3.11,4.73,13.64,13.64,0,0,1-10.09,4,14.64,14.64,0,0,1-5.57-1.39,18.13,18.13,0,0,1-5.23-3.7,18.33,18.33,0,0,1-3.7-5.23,14.64,14.64,0,0,1-1.39-5.57A13.82,13.82,0,0,1,215,63.49a13.32,13.32,0,0,1,5.37-.93A14.69,14.69,0,0,1,226,64a19,19,0,0,1,8.93,8.93Zm26.27-14-5.26,5.27-17.43-4.06L249.2,70.81l-5.48,5.47-21.2-21.2,5.65-5.66,16.34,3.75-10-10.05L240,37.65Z"/><path class="a" d="M259.1,84.1l-35.62,35.59a28.12,28.12,0,0,0,25.61,18.37c15.88.36,28.77-12.9,28.46-27.78A27.81,27.81,0,0,0,259.1,84.1Z"/><path class="a" d="M299.15,100.73a46.67,46.67,0,0,0-14.64-26.8,56.89,56.89,0,0,0-8.59-6.64l-8.44,8.43a38.57,38.57,0,0,1,21,34.4c.15,21.09-17.5,38.59-38.63,38.6a38.68,38.68,0,0,1-34.45-21l-73.5,73.45,1.48.5a4.13,4.13,0,0,1,3,3.17c5,18.33,22.76,32.36,42.59,32.21,1.87-.16,3.75-.25,5.62-.48A44.14,44.14,0,0,0,233.11,188a4,4,0,0,1,1.55-3.89c10.15-8.59,20.23-17.25,30.37-25.86a9.32,9.32,0,0,1,2.68-1.56A48.26,48.26,0,0,0,283,147.4C296.85,134.79,302.26,119.16,299.15,100.73ZM208.81,208.86a29.59,29.59,0,0,1-31,16.69c-12.33-1.94-21.3-11.23-23.29-20,3,1,5.6,1.86,8.21,2.78,4.06,1.43,8.07,3,12.14,4.36a21.67,21.67,0,0,0,28.65-20.77c-.1-8.85-6.18-17.12-13.78-19.49-3.48-1.09-6.92-2.3-10.38-3.47-.65-.23-1.28-.51-2.07-.82,4.13-2.43,16.46-.71,24.61,6.53A29.62,29.62,0,0,1,208.81,208.86Z"/><path class="a" d="M60.74,175.86a4.68,4.68,0,0,1,4.55-.6q6,2.09,12,4.13l33.65-33.63q-15.32-5.17-30.64-10.3a5.2,5.2,0,0,1-3.7-3.76c-5.9-18.35-23.22-29.61-42.38-27.16A38.84,38.84,0,0,0,.84,151.22C6.42,178.46,37.41,191.08,60.74,175.86Zm-32-57.41c14.83-6.72,29.7,1.66,33.77,11-2.78-1-5.59-2-8.32-3.12-11.61-4.85-24.28-.16-29.24,11.65-4.09,9.72.16,21.9,9.55,26.75,2.86,1.48,6.12,2.17,9.2,3.24.83.29,1.64.66,2.62,1.06-6.63,3.55-23.36.31-30.5-13A27.2,27.2,0,0,1,28.71,118.45Z"/></svg>