<?xml version="1.0" encoding="UTF-8"?>
<svg width="13px" height="14px" viewBox="0 0 13 14" version="1.1" xmlns="http://www.w3.org/2000/svg" xmlns:xlink="http://www.w3.org/1999/xlink">
    <!-- Generator: Sketch 61.2 (89653) - https://sketch.com -->
    <title>Discord-Logo-White</title>
    <desc>Created with Sketch.</desc>
    <g id="Home---Desktop" stroke="none" stroke-width="1" fill="none" fill-rule="evenodd">
        <g transform="translate(-681.000000, -2063.000000)" fill="#FFFFFF" fill-rule="nonzero" id="Footer-Social-Links-Copy">
            <g transform="translate(681.000000, 2063.000000)">
                <g id="Discord-Logo-White">
                    <path d="M4.97012302,5.7826087 C4.5737755,5.7826087 4.26086957,6.12534273 4.26086957,6.54347826 C4.26086957,6.96161379 4.58072897,7.30434783 4.97012302,7.30434783 C5.36647054,7.30434783 5.67937648,6.96161379 5.67937648,6.54347826 C5.68632995,6.12534273 5.36647054,5.7826087 4.97012302,5.7826087 Z M7.50813785,5.7826087 C7.11179033,5.7826087 6.79888439,6.12534273 6.79888439,6.54347826 C6.79888439,6.96161379 7.11874379,7.30434783 7.50813785,7.30434783 C7.90448537,7.30434783 8.2173913,6.96161379 8.2173913,6.54347826 C8.2173913,6.12534273 7.90448537,5.7826087 7.50813785,5.7826087 Z" id="Shape"></path>
                    <path d="M10.7478261,0 L1.42608696,0 C0.64,0 0,0.644 0,1.442 L0,10.906 C0,11.704 0.64,12.348 1.42608696,12.348 L9.31478261,12.348 L8.94608696,11.053 L9.83652174,11.886 L10.6782609,12.67 L12.173913,14 L12.173913,1.442 C12.173913,0.644 11.533913,0 10.7478261,0 Z M8.0626087,9.142 C8.0626087,9.142 7.81217391,8.841 7.60347826,8.575 C8.51478261,8.316 8.8626087,7.742 8.8626087,7.742 C8.5773913,7.931 8.30608696,8.064 8.0626087,8.155 C7.71478261,8.302 7.38086957,8.4 7.05391304,8.456 C6.38608696,8.582 5.77391304,8.547 5.25217391,8.449 C4.85565217,8.372 4.51478261,8.26 4.22956522,8.148 C4.06956522,8.085 3.89565217,8.008 3.72173913,7.91 C3.70086957,7.896 3.68,7.889 3.65913043,7.875 C3.64521739,7.868 3.63826087,7.861 3.63130435,7.854 C3.50608696,7.784 3.43652174,7.735 3.43652174,7.735 C3.43652174,7.735 3.77043478,8.295 4.65391304,8.561 C4.44521739,8.827 4.18782609,9.142 4.18782609,9.142 C2.65043478,9.093 2.06608696,8.078 2.06608696,8.078 C2.06608696,5.824 3.06782609,3.997 3.06782609,3.997 C4.06956522,3.241 5.0226087,3.26194183 5.0226087,3.26194183 L5.09217391,3.346 C3.84,3.71 3.2626087,4.263 3.2626087,4.263 C3.2626087,4.263 3.41565217,4.179 3.67304348,4.06 C4.4173913,3.731 5.00869565,3.64 5.25217391,3.619 C5.29391304,3.612 5.32869565,3.605 5.37043478,3.605 C5.79478261,3.549 6.27478261,3.535 6.77565217,3.591 C7.43652174,3.668 8.14608696,3.864 8.86956522,4.263 C8.86956522,4.263 8.32,3.738 7.1373913,3.374 L7.23478261,3.26194183 C7.23478261,3.26194183 8.18782609,3.241 9.18956522,3.997 C9.18956522,3.997 10.1913043,5.824 10.1913043,8.078 C10.1913043,8.078 9.6,9.093 8.0626087,9.142 L8.0626087,9.142 Z" id="Shape"></path>
                </g>
            </g>
        </g>
    </g>
</svg>