<svg xmlns="http://www.w3.org/2000/svg" viewBox="0 0 300 300"><defs><style>.a{fill:#fff;}</style></defs><title>battlenet_logo</title><path class="a" d="M169.45,246.56A292.59,292.59,0,0,0,205.23,299l-.63.87a56.11,56.11,0,0,1-6.82-3.87c-8.05-6.15-14-14.2-19.78-22.41-4.48-6.4-8.63-13-12.93-19.58-.65-1-1.32-1.95-1.79-2.66-6.67,3.16-13,6.42-19.6,9.2a40.94,40.94,0,0,1-21,3.41c-9.57-1.12-14.7-7.89-12.57-17.38.89-3.95,2.83-7.67,4.39-11.74-.78.38-1.74.82-2.69,1.3-10.52,5.33-21.3,10-33.29,10.49A47.29,47.29,0,0,1,64.7,245.1c-9.56-2.53-13.47-7.81-14.33-17.75-1-11.7,2.13-22.62,6.27-33.33A217.11,217.11,0,0,1,78,153.41a4.34,4.34,0,0,0,.43-4.75,168.21,168.21,0,0,1-14.45-51.2,6,6,0,0,0-.4-1c-21.12-.62-42.26.4-63.18,4.82l-.35-1a98.5,98.5,0,0,1,9.48-4.47c11.39-4,23.32-5,35.25-5.9,6-.43,11.92-.64,18.31-1,0-1.13,0-2.27,0-3.4-.47-12.71.93-25,8.13-35.95,3.12-4.77,6.9-8.49,13.16-8A15,15,0,0,1,94.75,47c2.35,2.7,4.46,5.6,7,8.78.3-3.6.51-7,.87-10.31,1.2-11.43,3.3-22.69,9.85-32.39a44.47,44.47,0,0,1,9.69-9.92c5.22-4,11.22-3.62,17-1.09C147.55,5.74,154,12,159.89,18.66,172.14,32.48,182,48,191,64a5.65,5.65,0,0,0,3.52,2.69c17.74,2.22,35.16,5.62,52,13.08,11.07-17.89,21.42-36,28-56l1.16.11c-.13,2.79.36,5.79-.5,8.33-3.5,10.36-7.2,20.68-11.26,30.84-2.76,6.93-6.25,13.58-9.49,20.5,3.33,2.13,6.65,4.14,9.86,6.32,7.63,5.18,14.34,11.33,19.09,19.35a19.93,19.93,0,0,1,2.74,6.54c1.4,8.14-1.28,12.61-9.22,15.07-4.29,1.33-8.83,1.89-13.58,2.86.74.57,1.34,1.09,2,1.53,10,6.59,19.68,13.75,26.89,23.46A44,44,0,0,1,299.39,173c2.1,7.77-1.47,14.19-7.45,19.26-7.63,6.48-16.9,9.21-26.41,11.21-17,3.59-34.3,4.14-51.61,3.22-3.63-.19-5.86.77-8.09,3.74a174.19,174.19,0,0,1-33.94,34.13C171.13,245.15,170.41,245.78,169.45,246.56Zm-89.11-149c0,1.08,0,1.51,0,1.94,0,1.08.06,2.17.16,3.25a177.43,177.43,0,0,0,17.34,61.75c6.67,13.51,15.33,25.18,28,33.73,3,2.07,5.55,2.9,8.51.09a33.13,33.13,0,0,1,4.3-2.92c23.83-16.48,44.63-36.38,64.53-57.28l5-5.21L218.38,140a492.19,492.19,0,0,1-63.7,67.61,86.32,86.32,0,0,0,16.47-1.16c5.45-1.06,10.74-3,16.42-4.64-10.1,7.91-21.5,10.88-34.3,10.84l9.24,20.57c1.26-.82,2-1.25,2.71-1.76C187.9,215,206,194.44,219,169.51c4.68-9,7.72-18.38,7-28.76-.21-2.81-1.09-4.45-3.63-5.82a256,256,0,0,0-54.41-21.48c-12.65-3.44-25.48-6.24-38.26-9.33V91.8c30.78,3.67,60.23,11,89.65,21.25A67.74,67.74,0,0,0,201.9,89.46a2.69,2.69,0,0,1,1.53.45c2.95,2,6.15,3.8,8.77,6.2,4.78,4.37,9.21,9.11,14,13.88l11.49-16.53a13.16,13.16,0,0,0-1.5-.95c-22.75-10.05-46.22-17.07-71.37-17.19-13.85-.06-27,2.46-39,9.64-1.78,1.06-2.69,2.13-2.47,4.35.52,5.3.58,10.65,1.17,15.93,2.63,23.29,8.13,46,15,68.3,1.33,4.32,2.76,8.61,4.22,13.17l-11.47,5.83a385,385,0,0,1-26.44-89,80.9,80.9,0,0,0-11.42,32.68c-3.62-13.19.27-25,7.06-36.44ZM123.2,205c-18.09-9-27.28-25.3-37.63-41.4-2.1,4.85-4.21,9.34-6,13.95-3,7.7-5.75,15.5-5.74,23.92,0,6.73,2.15,9.53,8.59,11.16C97,216.28,109.92,211.45,123.2,205Zm94-10.7c3.44-.23,6.34-.4,9.22-.62,9.13-.71,18.09-2.18,26.43-6.24s11.18-11.35,6.94-19.68c-5.59-11-15.31-18-25.41-25.39C233.49,161.52,226.59,178.09,217.15,194.26ZM123.36,77.42c17-10.6,35.24-12,54.75-11.79-4-5.24-7.08-10.1-10.93-14.26a105.09,105.09,0,0,0-15-13.91c-6.33-4.6-12.23-3.21-17.15,2.86C126.45,51,124,63.56,123.36,77.42ZM104.08,89.13c-.52-5.29-1.16-10.74-1.56-16.21A14.72,14.72,0,0,0,97.3,62.81c-3.92-3.56-7.58-3.47-10.84.7-5.81,7.42-6.09,16.28-6.5,25.62Zm38.74,127.32c-5.41,3.67-10.55,7.1-15.62,10.62-2.72,1.87-4.73,7.87-3.88,11.15,1,4,4.29,4.94,7.72,5.36,8.67,1.08,16.33-2,24-5.92ZM246.36,98l-12.72,20.74c4.82,2.26,9.43,4.18,13.8,6.54a13.21,13.21,0,0,0,8.74,1.39c8.43-1.29,10.61-5.73,6.47-13.29C258.92,106.55,253.11,102,246.36,98Z"/></svg>