<svg xmlns="http://www.w3.org/2000/svg" viewBox="0 0 300 300"><defs><style>.a{fill:#fff;}</style></defs><title>psn_logo</title><path class="a" d="M161.05,265.78,155.51,264q-21.15-6.72-42.31-13.41a1.21,1.21,0,0,1-1-1.39q0-106.93,0-213.88V34.22c2.38.49,4.66.91,6.92,1.42A590.38,590.38,0,0,1,183.4,54.1,116.32,116.32,0,0,1,207,65.15a57.32,57.32,0,0,1,17.69,16.52,55.79,55.79,0,0,1,8.2,20.2,109.44,109.44,0,0,1,1.77,29,53.14,53.14,0,0,1-5.44,21.26c-3.42,6.64-8.33,11.75-15.36,14.59a31.75,31.75,0,0,1-15,2,53.39,53.39,0,0,1-17.58-5.05,1.14,1.14,0,0,1-.79-1.23q0-36.28,0-72.58a27.51,27.51,0,0,0-1.67-10.32,11.41,11.41,0,0,0-9.28-7.44,5.68,5.68,0,0,0-5.47,2.08,11.75,11.75,0,0,0-2.66,6.33,31.69,31.69,0,0,0-.33,4.67q0,89.74,0,179.48Z"/><path class="a" d="M170.35,216V186.63c3.2-1,6.41-2,9.66-2.95A188,188,0,0,1,202,179a156.24,156.24,0,0,1,69.9,5.14,107.31,107.31,0,0,1,15.62,5.9,29.45,29.45,0,0,1,9.25,6.72A11.61,11.61,0,0,1,300,204.1a11.2,11.2,0,0,1-3,7.79,34.46,34.46,0,0,1-9,7,88.74,88.74,0,0,1-15.6,6.92q-22.8,8.11-45.56,16.35l-55.73,20-.77.24c0-.3,0-.54,0-.78,0-8.89,0-17.78,0-26.67a.93.93,0,0,1,.77-1.05q29.92-10.63,59.84-21.31c6.12-2.19,12.27-4.31,18.36-6.59a34,34,0,0,0,5.28-2.75,5.48,5.48,0,0,0,1.59-1.69,2.42,2.42,0,0,0-.37-3.36,9.67,9.67,0,0,0-2.37-1.57,23.07,23.07,0,0,0-7.93-1.8,54.38,54.38,0,0,0-19.14,1.67c-4.17,1.17-8.24,2.7-12.33,4.13q-21.4,7.52-42.8,15.08Z"/><path class="a" d="M102.64,211.17v25.34c-2.46.4-4.89.83-7.33,1.19a156.15,156.15,0,0,1-24.15,1.63,159.46,159.46,0,0,1-26.35-2.47,169.74,169.74,0,0,1-28.22-7.63,32.54,32.54,0,0,1-12.36-7.57,13.78,13.78,0,0,1-4.08-7.37c-.62-3.71.7-6.8,3.17-9.47a29.06,29.06,0,0,1,6.6-4.91,121.67,121.67,0,0,1,21.54-9.75l70.4-25,.78-.25c0,.3,0,.54,0,.78q0,13.38,0,26.75c0,.66-.24.89-.82,1.1q-24.7,8.82-49.41,17.7a37.71,37.71,0,0,0-5.35,2.6,6.59,6.59,0,0,0-1.87,1.74,2.58,2.58,0,0,0,.43,3.94,11.64,11.64,0,0,0,3.09,1.7A33.6,33.6,0,0,0,60,222.79a62.06,62.06,0,0,0,23.52-4.68c6.08-2.37,12.27-4.49,18.4-6.71C102.1,211.32,102.34,211.26,102.64,211.17Z"/></svg>