<?xml version="1.0" encoding="UTF-8"?>
<svg width="12px" height="12px" viewBox="0 0 12 12" version="1.1" xmlns="http://www.w3.org/2000/svg" xmlns:xlink="http://www.w3.org/1999/xlink">
    <!-- Generator: Sketch 55 (78076) - https://sketchapp.com -->
    <title>thumb-down</title>
    <desc>Created with Sketch.</desc>
    <g id="Gamer-Details/LoL/Desktop" stroke="none" stroke-width="1" fill="none" fill-rule="evenodd">
        <g id="Gamer-Details---Reviews-Empty" transform="translate(-682.000000, -524.000000)" fill="#7F8FA4" fill-rule="nonzero">
            <g id="Review-Gamer" transform="translate(545.000000, 365.000000)">
                <g id="Textarea-with-Description" transform="translate(15.000000, 50.000000)">
                    <g id="Selections" transform="translate(15.000000, 100.000000)">
                        <g id="Button-Select">
                            <g id="thumb-down" transform="translate(107.000000, 9.000000)">
                                <path d="M11.6297143,6.42942857 C11.6297143,6.666 11.4377143,6.858 11.2011429,6.858 L9.23742857,6.858 L6.59057143,11.1351429 C6.18171429,11.8208571 5.652,11.9245714 5.37342857,11.9245714 C5.37342857,11.9245714 5.37257143,11.9245714 5.37257143,11.9245714 C4.95685714,11.9245714 4.554,11.6982857 4.34485714,11.3494286 C4.03285714,10.8265714 4.14085714,10.11 4.27028571,9.54428571 L4.61571429,7.72371429 L1.31657143,7.72371429 C0.590571429,7.72371429 0.000857142857,7.14514286 0.000857142857,6.43371429 C0.000857142857,5.964 0.258,5.55171429 0.642,5.32628571 C0.510857143,5.14714286 0.427714286,4.93628571 0.427714286,4.70142857 C0.427714286,4.25057143 0.633428571,3.86914286 0.96,3.64457143 C0.841714286,3.44314286 0.785142857,3.21428571 0.785142857,2.98542857 C0.785142857,2.49257143 1.06628571,2.07514286 1.48542857,1.86685714 C1.37142857,1.64742857 1.34657143,1.42457143 1.34657143,1.27542857 C1.34657143,0.476571429 1.84457143,8.8817842e-16 2.67771429,8.8817842e-16 L7.49914286,8.8817842e-16 C8.14542857,8.8817842e-16 8.59114286,0.346285714 8.916,0.6 C9.10371429,0.745714286 9.28114286,0.884571429 9.40371429,0.884571429 L11.2062857,0.884571429 C11.4428571,0.884571429 11.6348571,1.07657143 11.6348571,1.31314286 C11.6348571,1.54971429 11.4428571,1.74171429 11.2062857,1.74171429 L9.40371429,1.74171429 C8.98628571,1.74171429 8.66914286,1.49485714 8.38885714,1.27714286 C8.11285714,1.06028571 7.85142857,0.857142857 7.49914286,0.857142857 L2.67771429,0.857142857 C2.27742857,0.857142857 2.20371429,0.998571429 2.20371429,1.27542857 C2.20371429,1.41085714 2.20371429,1.72714286 3.084,1.72714286 L3.174,1.72714286 C3.41057143,1.72714286 3.60257143,1.91914286 3.60257143,2.15571429 C3.60257143,2.39228571 3.41057143,2.58428571 3.174,2.58428571 L2.09571429,2.58428571 C1.83257143,2.58428571 1.64228571,2.75314286 1.64228571,2.98542857 C1.64228571,3.37114286 2.02714286,3.42857143 2.25685714,3.42857143 L2.89971429,3.42857143 C3.13628571,3.42857143 3.32828571,3.62057143 3.32828571,3.85714286 C3.32828571,4.09371429 3.13628571,4.28571429 2.89971429,4.28571429 L1.66885714,4.28571429 C1.386,4.28571429 1.28485714,4.5 1.28485714,4.70057143 C1.28485714,4.84457143 1.59857143,5.09228571 1.88914286,5.14028571 L2.71714286,5.14028571 C2.95371429,5.14028571 3.14571429,5.33228571 3.14571429,5.56885714 C3.14571429,5.80542857 2.95371429,5.99742857 2.71714286,5.99742857 L1.87457143,5.99742857 C1.86857143,5.99742857 1.86342857,6.00085714 1.85742857,6.00085714 L1.31657143,6.00085714 C1.06371429,6.00085714 0.858,6.19542857 0.858,6.43371429 C0.858,6.672 1.06371429,6.86657143 1.31657143,6.86657143 L5.13342857,6.86657143 C5.26114286,6.86657143 5.382,6.92314286 5.46342857,7.02171429 C5.54485714,7.12028571 5.57828571,7.24971429 5.55428571,7.37485714 L5.10857143,9.71828571 C5.05542857,9.95228571 4.90457143,10.6148571 5.08028571,10.9097143 C5.12571429,10.9851429 5.23628571,11.0674286 5.37171429,11.0674286 C5.53971429,11.0674286 5.712,10.9328571 5.85685714,10.6902857 L8.63314286,6.204 C8.71114286,6.078 8.84914286,6.00085714 8.99742857,6.00085714 L11.1994286,6.00085714 C11.4385714,6.00085714 11.6297143,6.19285714 11.6297143,6.42942857 Z" id="Shape"></path>
                            </g>
                        </g>
                    </g>
                </g>
            </g>
        </g>
    </g>
</svg>