<?xml version="1.0" encoding="UTF-8"?>
<svg width="16px" height="15px" viewBox="0 0 16 15" version="1.1" xmlns="http://www.w3.org/2000/svg" xmlns:xlink="http://www.w3.org/1999/xlink">
    <!-- Generator: Sketch 55.2 (78181) - https://sketchapp.com -->
    <title>user icon</title>
    <desc>Created with Sketch.</desc>
    <g id="Sign-In/Sign-Up" stroke="none" stroke-width="1" fill="none" fill-rule="evenodd">
        <g id="Create-Account" transform="translate(-590.000000, -387.000000)" fill="#CED0DA" fill-rule="nonzero">
            <g transform="translate(550.000000, 285.000000)" id="Username-Form">
                <g transform="translate(30.000000, 91.000000)">
                    <g id="user-icon" transform="translate(10.000000, 11.000000)">
                        <path d="M15.1578947,13.8846316 C15.1048421,11.6218947 12.8185263,9.67494737 9.66652632,9.16126316 L9.66652632,8.00421053 C10.0808421,7.60589474 10.3755789,6.98778947 10.5684211,6.46063158 C10.848,6.32084211 11.0938947,6.00926316 11.2370526,5.59073684 C11.4374737,5.01136842 11.36,4.47663158 11.0635789,4.21894737 C11.0871579,4.01852632 11.1023158,3.81389474 11.0762105,3.61010526 C11.0096842,3.05178947 11.1309474,2.736 11.2395789,2.45810526 C11.3288421,2.22484211 11.4324211,1.96042105 11.3288421,1.66231579 C10.9566316,0.590315789 9.87452632,-2.22044605e-16 8.28210526,-2.22044605e-16 L8.05978947,0.00421052632 C6.95410526,0.0437894737 6.62231579,0.509473684 6.4,0.943157895 C6.37221053,0.995368421 6.33515789,1.06610526 6.33515789,1.07031579 C4.89347368,1.19915789 4.90610526,2.39157895 4.91705263,3.34989474 L4.91957895,3.66063158 C4.91957895,3.83326316 4.92715789,4.01347368 4.94147368,4.19873684 C4.58357895,4.45136842 4.51705263,5.04505263 4.79073684,5.66147368 C4.94652632,6.01094737 5.17136842,6.27536842 5.42147368,6.41263158 C5.62610526,6.98021053 5.94778947,7.65052632 6.41431579,8.06736842 L6.41431579,9.14778947 C3.216,9.64378947 0.895157895,11.5957895 0.842105263,13.8846316 L0.832,14.3157895 L15.1671579,14.3157895 L15.1578947,13.8846316 Z M1.72968421,13.4736842 C2.05978947,11.7103158 4.13726316,10.256 6.88505263,9.93347368 L7.25642105,9.88968421 L7.25642105,7.64463158 L7.07452632,7.51831579 C6.74357895,7.28926316 6.40842105,6.72084211 6.15663158,5.95957895 L6.08673684,5.72294737 L5.83915789,5.68 C5.79452632,5.664 5.664,5.55115789 5.56126316,5.31957895 C5.49810526,5.17810526 5.47368421,5.05684211 5.46694737,4.97010526 L5.89642105,5.09052632 L5.81557895,4.45978947 C5.78021053,4.18189474 5.76168421,3.91157895 5.76168421,3.65978947 L5.75915789,3.33978947 C5.74652632,2.21052632 5.80210526,1.96378947 6.41010526,1.90905263 C6.86905263,1.86863158 7.04336842,1.53094737 7.14778947,1.32884211 C7.27410526,1.08294737 7.38357895,0.871578947 8.09094737,0.845473684 L8.28210526,0.842105263 C8.98021053,0.842105263 10.2012632,0.984421053 10.5296842,1.92168421 C10.5296842,1.95789474 10.4858947,2.07073684 10.4538947,2.15326316 C10.3317895,2.46821053 10.1473684,2.944 10.24,3.71368421 C10.2602105,3.872 10.2341053,4.07073684 10.2063158,4.28210526 L10.1313684,4.96 L10.5027368,4.91957895 C10.5094737,5.00715789 10.4993684,5.14610526 10.4395789,5.31705263 C10.3578947,5.56042105 10.2357895,5.68589474 10.24,5.69936842 L9.93684211,5.69936842 L9.84084211,5.98736842 C9.60252632,6.70568421 9.29347368,7.248 8.99115789,7.47621053 L8.82442105,7.60252632 L8.82442105,9.89810526 L9.19326316,9.94442105 C11.8972632,10.2821053 13.9435789,11.7322105 14.2711579,13.4745263 L1.72968421,13.4745263 L1.72968421,13.4736842 Z" id="Shape"></path>
                    </g>
                </g>
            </g>
        </g>
    </g>
</svg>