<svg xmlns="http://www.w3.org/2000/svg" viewBox="0 0 300 300"><defs><style>.a{fill:#fff;}</style></defs><title>lol_logo</title><path class="a" d="M135.93,252.49h9.33c42.73,0,85.46-.11,128.19.17,4,0,9.81,1.3,11.72,4.09,3.44,5-2.14,8.44-5.42,11.75-9.07,9.17-18,18.46-27.46,27.24a16,16,0,0,1-9.84,4.08q-96,.36-191.91,0c-3,0-8.18-1.87-8.63-3.75-.67-2.83,1.92-6.45,3.15-9.73.08-.22.34-.38.54-.52,19.27-13,23.7-30.91,23.09-53.81C67,169.88,68,107.65,68.25,45.46c0-6.46-1.52-11.66-5.63-16.57A216.82,216.82,0,0,1,49.43,11.33C45.33,5.29,47.91.18,55.25.11,79.52-.09,103.79.05,128.06,0c5.37,0,7.88,2.66,7.85,7.93,0,2.28,0,4.56,0,6.83V252.49Z"/><path class="a" d="M150.69,54.89c22-.43,41.6,6,59.38,17.8a108.83,108.83,0,0,1,22.57,161.73c-1.62,1.91-4.28,4.15-6.49,4.18-25,.29-49.94.19-75.46.19Z"/><path class="a" d="M150.53,40.15V27.68c18.59-.76,35.76,3.4,52.41,10.34,73.25,30.57,104.88,118.88,67.69,189-6.93,13.07-6.94,13.07-22.54,11.12,27.86-40.81,33.85-84,11.69-128.72C237.75,65,200.07,43.2,150.53,40.15Z"/><path class="a" d="M53.56,259.4C2.83,211.58-2,122.47,53.77,67.27c-.4,9.24,2.15,16.77-3.47,24.47-30.46,41.7-31.8,97.43-2.64,139.74C53.77,240.35,54.39,248.8,53.56,259.4Z"/><path class="a" d="M53.73,113.83v98.54C37.52,191.8,35.86,141.15,53.73,113.83Z"/></svg>