<svg xmlns="http://www.w3.org/2000/svg" viewBox="0 0 300 300"><defs><style>.a{fill:#fff;}</style></defs><title>steam_logo</title><path class="a" d="M189,237.09c-19.83.15-37.63-13.88-42.59-32.21a4.13,4.13,0,0,0-3-3.17q-26.5-8.86-53-17.85c-8.39-2.84-16.78-5.68-25.14-8.6a4.68,4.68,0,0,0-4.55.6c-23.33,15.22-54.32,2.6-59.9-24.64A38.84,38.84,0,0,1,34.2,104.54c19.16-2.45,36.48,8.81,42.38,27.16a5.2,5.2,0,0,0,3.7,3.76q24.73,8.25,49.43,16.66c8.52,2.87,17,5.74,25.52,8.7a3.54,3.54,0,0,0,4.06-.85c7.44-7.07,16.46-10.58,26.57-11.39a2.72,2.72,0,0,0,2.76-2.16c3.59-11,7.34-21.86,10.73-32.88.82-2.66.47-5.67.75-8.51A48.11,48.11,0,0,1,213,76.33c7.16-7.75,15.75-13,26.1-15.13,17.27-3.51,32.5.63,45.43,12.73a46.67,46.67,0,0,1,14.64,26.8c3.11,18.43-2.3,34.06-16.17,46.67a48.26,48.26,0,0,1-15.27,9.29,9.32,9.32,0,0,0-2.68,1.56c-10.14,8.61-20.22,17.27-30.37,25.86a4,4,0,0,0-1.55,3.89,44.14,44.14,0,0,1-38.51,48.61C192.73,236.84,190.85,236.93,189,237.09Zm22.11-127.16a38.71,38.71,0,0,0,38.77,38.79c21.13,0,38.78-17.51,38.63-38.6a38.7,38.7,0,0,0-77.4-.19Zm-56.57,95.61c2,8.78,11,18.07,23.29,20a29.42,29.42,0,0,0,24.09-50.89c-8.15-7.24-20.48-9-24.61-6.53.79.31,1.42.59,2.07.82,3.46,1.17,6.9,2.38,10.38,3.47,7.6,2.37,13.68,10.64,13.78,19.49a21.67,21.67,0,0,1-28.65,20.77c-4.07-1.39-8.08-2.93-12.14-4.36C160.12,207.4,157.48,206.54,154.52,205.54Zm-92-76.08c-4.07-9.35-18.94-17.73-33.77-11A27.2,27.2,0,0,0,15.79,156c7.14,13.34,23.87,16.58,30.5,13-1-.4-1.79-.77-2.62-1.06-3.08-1.07-6.34-1.76-9.2-3.24-9.39-4.85-13.64-17-9.55-26.75,5-11.81,17.63-16.5,29.24-11.65C56.89,127.48,59.7,128.42,62.48,129.46Z"/><path class="a" d="M277.55,110.28c.31,14.88-12.58,28.14-28.46,27.78a27.8,27.8,0,1,1,28.46-27.78Z"/></svg>