<svg xmlns="http://www.w3.org/2000/svg" viewBox="0 0 300 300"><defs><style>.a{fill:#fff;}</style></defs><title>origin_logo</title><path class="a" d="M151.68,298.7c5.43-10.86,12.94-21.05,12.6-32.51-15.34-1.9-30.05-2.3-44-5.71-43.87-10.69-78.6-50.79-83.31-94.56-5.87-54.63,14.44-98.47,56.6-132.13C109.09,21.37,127.1,12,144,1.33c.87-.55,2-.62,4.59-1.33-4.46,12.7-13.8,22.73-12.78,34.61,15.27,1.88,30,2.29,44,5.69,43.82,10.67,79.13,51.9,83.37,94.58,5.87,59-17.51,104.34-64.3,138.53-12.85,9.39-27.26,16.66-41,24.83A27.66,27.66,0,0,1,153.1,300ZM106.1,150c-2,24.27,21.47,44.51,43.33,44.76,24.69.28,44.61-22.12,44.93-43.56.36-24.64-21.92-45.73-44.08-44.92C125,107.17,106.12,125,106.1,150Z"/></svg>