<svg xmlns="http://www.w3.org/2000/svg" viewBox="0 0 300 300"><defs><style>.a{fill:#fff;}</style></defs><title>origin_logo</title><path class="a" d="M195.15,93.06a5.36,5.36,0,0,0-1.61,4.66,9.29,9.29,0,0,0,7.57,7.57,5.36,5.36,0,0,0,4.66-1.61A5.42,5.42,0,0,0,207.39,99a9.26,9.26,0,0,0-7.57-7.57A5.42,5.42,0,0,0,195.15,93.06Z"/><path class="a" d="M216,72.26a5.36,5.36,0,0,0-1.61,4.66,9.26,9.26,0,0,0,7.57,7.57,5.36,5.36,0,0,0,4.66-1.61,5.42,5.42,0,0,0,1.62-4.67,9.26,9.26,0,0,0-7.57-7.57A5.42,5.42,0,0,0,216,72.26Z"/><path class="a" d="M77.84,210.38A5.36,5.36,0,0,0,76.22,215a9.31,9.31,0,0,0,7.58,7.58,5.65,5.65,0,0,0,6.28-6.28,9.25,9.25,0,0,0-7.58-7.58A5.38,5.38,0,0,0,77.84,210.38Z"/><path class="a" d="M262.24,0,23.74,238.37,0,262.23,37.74,300l38-38.15L300,37.75M64.88,241.51a5.46,5.46,0,0,0,4.7-1.64,4.46,4.46,0,0,0,1.27-3.07,6.32,6.32,0,0,0-.85-3.53l7.27-2.18a17.77,17.77,0,0,1,.93,2.55,14.85,14.85,0,0,1,.48,2.85,12.69,12.69,0,0,1-.15,3,10.75,10.75,0,0,1-1.09,3.06,12,12,0,0,1-2.19,3,13.4,13.4,0,0,1-13.93,3.4,18.76,18.76,0,0,1-11.44-11.45,13.56,13.56,0,0,1-.31-7.45,13.74,13.74,0,0,1,3.72-6.46,12.56,12.56,0,0,1,2.93-2.2,10.79,10.79,0,0,1,3-1.1,12.07,12.07,0,0,1,3-.17,14.37,14.37,0,0,1,2.85.47,17.09,17.09,0,0,1,2.58.95l-2.15,7.3A6.4,6.4,0,0,0,62,228,4.46,4.46,0,0,0,59,229.25a5.46,5.46,0,0,0-1.64,4.7,9.14,9.14,0,0,0,7.56,7.56ZM96.76,211a14.69,14.69,0,0,1,1.39,5.56,13.36,13.36,0,0,1-.92,5.38,14,14,0,0,1-7.82,7.82,13.36,13.36,0,0,1-5.38.92,14.49,14.49,0,0,1-5.57-1.38,18,18,0,0,1-5.22-3.71,17.77,17.77,0,0,1-3.7-5.22,14.33,14.33,0,0,1-1.39-5.57,13.36,13.36,0,0,1,.92-5.38,14,14,0,0,1,7.82-7.82,13.36,13.36,0,0,1,5.38-.92,14.69,14.69,0,0,1,5.56,1.39A18.74,18.74,0,0,1,96.76,211Zm30.35-18.1-5.48,5.48-12.75-12.75,8.71,16.79-2.46,2.46-16.79-8.7,12.75,12.74-5.48,5.48L84.4,193.19,92,185.62l13.36,7-7-13.34,7.57-7.57Zm8.42-8.42L130.05,190l-21.2-21.21,5.47-5.47Zm20.36-20.37-5.26,5.27-17.43-4.06,10.74,10.75-5.48,5.47-21.2-21.21,5.65-5.65,16.34,3.75-10-10.05,5.48-5.48Zm15.64-21.62a12.92,12.92,0,0,1-8.19,13.4,13.53,13.53,0,0,1-5.18.85,14.38,14.38,0,0,1-5.56-1.4,19.48,19.48,0,0,1-9.12-9.13,13.94,13.94,0,0,1-1.34-5.62,13.47,13.47,0,0,1,1-5.33,14,14,0,0,1,3.1-4.64,12.1,12.1,0,0,1,2.7-2.06,10.55,10.55,0,0,1,2.82-1.12,11.56,11.56,0,0,1,2.82-.31,12.87,12.87,0,0,1,2.71.29,14.69,14.69,0,0,1,2.47.77l-1.87,7.4a6.78,6.78,0,0,0-3.18-.55,4.2,4.2,0,0,0-2.8,1.25,5.46,5.46,0,0,0-1.64,4.7,9.14,9.14,0,0,0,7.56,7.56,5.69,5.69,0,0,0,6.12-4,6,6,0,0,0,.14-2.68l-3.84,3.85-5.59-5.59,9.88-9.89Q170.79,136.45,171.53,142.49Zm25.18-22.31c-.09,2.69-1.37,5.26-3.82,7.71a15.65,15.65,0,0,1-11.8,5l-1.91-7.62a12,12,0,0,0,4.57-.62,10.13,10.13,0,0,0,4-2.5,4.44,4.44,0,0,0,1.16-1.71,1.29,1.29,0,0,0-.28-1.42.9.9,0,0,0-.89-.2,4.88,4.88,0,0,0-1.3.56l-1.69,1-2,1.15-2.15,1.23a7.54,7.54,0,0,1-2.37.86,10.1,10.1,0,0,1-2.57.12,7.33,7.33,0,0,1-2.7-.85,10.9,10.9,0,0,1-2.76-2.06,10.14,10.14,0,0,1-2.13-3.11,9.69,9.69,0,0,1-.85-3.64,9.34,9.34,0,0,1,.8-4,12.17,12.17,0,0,1,2.67-3.85,15.18,15.18,0,0,1,10.68-4.76L183,109a11.83,11.83,0,0,0-4.13,1,11,11,0,0,0-3.31,2.23c-.92.92-1.07,1.69-.45,2.3a.89.89,0,0,0,.88.19,5,5,0,0,0,1.33-.54l1.7-1,2-1.13,2.15-1.21a8,8,0,0,1,2.37-.85,9.47,9.47,0,0,1,2.54-.16,7.23,7.23,0,0,1,2.65.78,10.22,10.22,0,0,1,2.64,2A10,10,0,0,1,196.71,120.18Zm17.37-26.5a14.69,14.69,0,0,1,1.39,5.57,13.73,13.73,0,0,1-14.12,14.12,14.69,14.69,0,0,1-5.57-1.39,18.13,18.13,0,0,1-5.23-3.7,18.33,18.33,0,0,1-3.7-5.23,14.64,14.64,0,0,1-1.39-5.57,13.55,13.55,0,0,1,.93-5.38,13.75,13.75,0,0,1,13.19-8.74,14.69,14.69,0,0,1,5.57,1.39,19,19,0,0,1,8.93,8.93Zm20.8-20.8a14.69,14.69,0,0,1,1.39,5.57,13.49,13.49,0,0,1-.92,5.37,13.7,13.7,0,0,1-3.11,4.73,13.64,13.64,0,0,1-10.09,4,14.64,14.64,0,0,1-5.57-1.39,18.13,18.13,0,0,1-5.23-3.7,18.33,18.33,0,0,1-3.7-5.23,14.64,14.64,0,0,1-1.39-5.57A13.82,13.82,0,0,1,215,63.49a13.32,13.32,0,0,1,5.37-.93A14.69,14.69,0,0,1,226,64a19,19,0,0,1,8.93,8.93Zm26.27-14-5.26,5.27-17.43-4.06L249.2,70.81l-5.48,5.47-21.2-21.2,5.65-5.66,16.34,3.75-10-10.05L240,37.65Z"/><path class="a" d="M50.26,206.39l55.81-55.78c0-.21,0-.43,0-.64,0-25,18.87-42.8,44.18-43.72h.18L206,50.77A102.42,102.42,0,0,0,179.79,40.3c-14-3.4-28.69-3.81-44-5.69-1-11.88,8.32-21.91,12.78-34.61-2.54.71-3.72.78-4.59,1.33-16.92,10.7-34.93,20-50.48,32.46-42.16,33.66-62.47,77.5-56.6,132.13A105,105,0,0,0,50.26,206.39Z"/><path class="a" d="M249.4,93.79l-55.07,55q0,1.15,0,2.34c-.32,21.44-20.24,43.84-44.93,43.56l-1,0-55.07,55a104.14,104.14,0,0,0,26.88,10.76c14,3.41,28.69,3.81,44,5.71.34,11.46-7.17,21.65-12.6,32.51l1.42,1.3a27.66,27.66,0,0,0,4.77-1.76c13.73-8.17,28.14-15.44,41-24.83,46.79-34.19,70.17-79.53,64.3-138.53A102.25,102.25,0,0,0,249.4,93.79Z"/></svg>