<?xml version="1.0" encoding="UTF-8"?>
<svg width="16px" height="16px" viewBox="0 0 16 16" version="1.1" xmlns="http://www.w3.org/2000/svg" xmlns:xlink="http://www.w3.org/1999/xlink">
    <!-- Generator: Sketch 54 (76480) - https://sketchapp.com -->
    <title>Delete Icon</title>
    <desc>Created with Sketch.</desc>
    <g id="Symbols" stroke="none" stroke-width="1" fill="none" fill-rule="evenodd" opacity="0.695425725">
        <g id="Button/Default/Icon" transform="translate(-14.000000, -10.000000)" fill="#FFFFFF">
            <g id="Normal">
                <g id="Content" transform="translate(14.000000, 9.000000)">
                    <path d="M14.4995642,6 L13.9999983,6 C13.9999994,6.0009199 14,6.00183994 14,6.00276013 L14,14.9972399 C14,16.1064574 13.1007504,17 11.9914698,17 L4.0085302,17 C2.90195036,17 2,16.1033337 2,14.9972399 L2,6.00276013 C2,6.00183994 2.00000062,6.00091989 2.00000186,6 L1.00087166,6 C0.444630861,6 0,5.55228475 0,5 C0,4.44386482 0.448105505,4 1.00087166,4 L5.00004249,4 C5.00001418,3.99688039 5,3.99375741 5,3.9906311 L5,2.0093689 C5,1.44335318 5.44358641,1 5.99077797,1 L10.009222,1 C10.5490248,1 11,1.45190985 11,2.0093689 L11,3.9906311 C11,3.99375783 10.9999865,3.99688081 10.9999594,4 L14.9991283,4 C15.5553691,4 16,4.44771525 16,5 C16,5.55613518 15.5518945,6 14.9991283,6 L14.4995642,6 L14,6 L14.4995642,6 Z M4.99703014,6 C4.4463856,6 4,6.4463114 4,6.99754465 L4,14.0024554 C4,14.553384 4.45303631,15 4.99703014,15 L11.0029699,15 C11.5536144,15 12,14.5536886 12,14.0024554 L12,6.99754465 C12,6.44661595 11.5469637,6 11.0029699,6 L4.99703014,6 Z M7,3 L7,4 L9,4 L9,3 L7,3 Z M9.5,8 C9.76806641,8 10,8.22282734 10,8.49769878 L10,12.5023012 C10,12.7851562 9.77614237,13 9.5,13 C9.23193359,13 9,12.7771727 9,12.5023012 L9,8.49769878 C9,8.21484375 9.22385763,8 9.5,8 Z M6.5,8 C6.76806641,8 7,8.22282734 7,8.49769878 L7,12.5023012 C7,12.7851562 6.77614237,13 6.5,13 C6.23193359,13 6,12.7771727 6,12.5023012 L6,8.49769878 C6,8.21484375 6.22385763,8 6.5,8 Z" id="Delete-Icon"></path>
                </g>
            </g>
        </g>
    </g>
</svg>